<?xml version="1.0" encoding="utf-8"?>
<!-- Generator: Adobe Illustrator 24.0.2, SVG Export Plug-In . SVG Version: 6.00 Build 0)  -->
<svg version="1.1" id="Layer_1" xmlns="http://www.w3.org/2000/svg" xmlns:xlink="http://www.w3.org/1999/xlink" x="0px" y="0px"
	 viewBox="0 0 2030.6 546.3" style="enable-background:new 0 0 2030.6 546.3;" xml:space="preserve">
<style type="text/css">
	.st0{opacity:0.51;}
	.st1{clip-path:url(#SVGID_2_);enable-background:new    ;}
	.st2{clip-path:url(#SVGID_4_);}
	.st3{fill:#6F6F6E;}
</style>
<g class="st0">
	<g>
		<g>
			<defs>
				<path id="SVGID_1_" d="M367.8,318c44.9-13.9,106.2-23.3,162.4-5.2c56.7,16.7,102.4,58.5,130.8,95.9c-8.7-21.9-23.4-46-44.8-67
					c-21.2-21.1-49.2-38.6-80.1-48c-18.6-6-37.5-8.5-55.9-8.5C436.2,285.1,395,299.7,367.8,318 M381.6,280.4
					c-30.6,16.9-53.8,40.3-70,62.4c41-36,105.6-71.9,174.8-67.7c69.2,2.1,131.8,40.8,171.4,78.3c-15.1-23-37.6-47-67.1-65.5
					c-29.3-18.6-65.8-31.3-103.4-32.8c-3-0.1-6.1-0.2-9.1-0.2C443.6,254.9,409.5,264.6,381.6,280.4 M426.3,230.8
					c-42,9-80.6,32.1-107,62c-27,29.6-42.2,64.3-50.1,94.5c14.2-27.9,33.3-58.7,60.8-84c27-25.6,62.5-44.7,100.7-52.9
					c38.2-8.7,78.5-6.2,114.6,3c36.4,9.2,68.6,25.3,95.1,42.1c-22.3-22-53.2-43.5-90.8-56.5c-23.8-8.3-50.3-13.2-77.2-13.2
					C457,225.7,441.5,227.3,426.3,230.8 M446.5,198c-64.4,6.4-126.4,40.3-161.4,90.5c-36,49.9-43.4,109.3-38.2,156.1
					c1.4-47.2,14.2-102.8,50.1-147.1c35.2-44.5,92-73.6,151.6-79.7c59.7-6.7,120.9,8.2,170.7,36.1c50.2,27.7,89.6,67.1,116.5,106.3
					C714.6,317.7,678,273.2,627,241c-43.1-27.4-96.9-44.7-151.9-44.7C465.6,196.4,456,196.9,446.5,198 M392.6,179.2
					c-67.9,19.7-128,68.5-154.8,130c-28,61.5-19.6,128,1.7,175c-15.1-49.6-17-113,11.9-168.6c27.9-55.7,83.9-98.9,147-117.3
					c63.3-19.2,132.4-14.1,191.2,7.6c59.3,21.3,107.7,58.8,141.9,98.1C702.6,260.8,656,217.6,595,192
					c-36.5-15.7-78.2-24.7-120.5-24.7C447.1,167.3,419.3,171.1,392.6,179.2 M307.7,189c-63.5,42.6-102.2,109.2-109.1,169.1
					c13.6-58.7,55.3-118.8,117.2-156.5c61.3-38.5,141.2-53.3,216.5-40.2c75.7,12.7,144.3,54.7,194.9,106.7
					c51.1,52.2,85.7,113.6,105,170.5c-12.9-58.8-43.6-124.4-94.1-180.8c-49.9-56.2-121.7-102.6-202.4-116.2
					c-18-3.1-36.3-4.6-54.5-4.6C418.5,137,356.4,155.3,307.7,189 M28.3,275.5c-17.8,59.4-17.5,123.1-5.4,168
					c1.3-46.5,7.7-105.7,24.6-162.4C63.7,224.2,90.2,171,116,132.2C80.1,162.1,45.1,215.9,28.3,275.5 M463.8,107.6
					c-83.1,1.8-164.1,37.9-218.4,93.3c-55.2,55.1-81.7,128.2-79.6,189.6c4.7-61.2,35.4-128.8,90-178.9
					c54-50.3,130.5-82.3,208.5-84.1c78.3-2,155.9,24.1,218.5,63.8c63,39.6,112.5,92.2,142.3,145.8
					c-23.9-56.7-70.7-114.7-134.1-158.4c-60.8-42.4-138.5-71.4-218.8-71.4C469.5,107.5,466.7,107.6,463.8,107.6 M413.6,84.6
					c-64.2,9.3-125.9,37.5-171.1,78.4c-45.4,40.7-75.2,91.2-88.4,137.7c19.5-44.2,52.7-89.8,98.1-126.2
					c45.3-36.4,103.5-61.2,164.4-70c122.7-18.9,249.1,22,325,81.2c-57-59.3-160.7-105.3-270.1-105.3
					C452.3,80.2,432.9,81.6,413.6,84.6 M279.4,101.2c-54.3,29.3-100.9,73.4-130,123.7c-29.4,50.2-41.5,104.5-41.4,150.5
					c6.6-45.5,23.3-96.5,54.2-142.5c30.5-46.2,75.2-86.2,126.9-114.1c103.5-57,228.7-65.4,317.3-41.3c-36.8-16.2-83-25.2-132.4-25.2
					C410,52.2,340.8,67.3,279.4,101.2 M102.8,188c-43.7,67.3-61.7,149.1-54.9,208.8c6.8-59.6,30.2-133.8,71.8-198.1
					c40.5-64.9,97.2-118.4,148-150.1C210.8,68.2,145,120,102.8,188 M203.5,118.6c-35.9,30.2-66.3,67.2-87,106.1
					c-21,38.9-31.8,79.4-34.6,114.4c9.4-33.9,24.7-71.2,47.5-106.8c22.7-35.7,52.7-69.5,87-98.4c68.4-58.4,153.9-94.2,223.3-104.6
					c-3.2-0.2-6.6-0.2-9.9-0.2C360.7,29.1,271.8,60.1,203.5,118.6"/>
			</defs>
			<use xlink:href="#SVGID_1_"  style="overflow:visible;fill:#001950;"/>
			<clipPath id="SVGID_2_">
				<use xlink:href="#SVGID_1_"  style="overflow:visible;"/>
			</clipPath>
			<g class="st1">
				<g>
					<defs>
						<rect id="SVGID_3_" x="2.1" y="21.6" width="836.7" height="469.2"/>
					</defs>
					<use xlink:href="#SVGID_3_"  style="overflow:visible;fill:#666460;"/>
					<clipPath id="SVGID_4_">
						<use xlink:href="#SVGID_3_"  style="overflow:visible;"/>
					</clipPath>
					<g transform="matrix(1 0 0 1 3.485843e-007 1.933080e-005)" class="st2">
						
							<image style="display:none;overflow:visible;enable-background:new    ;" width="302" height="170" xlink:href="377F3A2.jpg"  transform="matrix(2.7601 0 0 -2.7601 3.6563 490.819)">
						</image>
					</g>
				</g>
			</g>
		</g>
	</g>
	<g>
		<polygon class="st3" points="1012.4,231.1 912,231.1 912,279.6 1012.4,279.6 1012.4,323 912,323 912,417.3 854.1,417.3 
			854.1,187.7 1012.4,187.7 		"/>
		<path class="st3" d="M1173.5,420.3c-79.5,0-131-57.6-131-117.6c0-53.5,44.4-118.2,132-118.2c81.2,0,131.7,58.3,131.7,118.2
			C1306.2,356,1262.8,420.3,1173.5,420.3 M1174.2,233.5c-41.1,0-72.1,24.9-72.1,70.4c0,54.9,45.1,70,72.4,70
			c36.7,0,72.4-24.3,72.4-69.7C1246.9,261.4,1219,233.5,1174.2,233.5"/>
		<path class="st3" d="M1431.8,187.7c20.9,0,41.8,0,60.3,11.4c12.1,8.1,30,26.9,30,54.2c0,38.4-29.7,51.9-39.4,56.6
			c16.5,8.1,28,31.3,33,43.1c6.4,13.1,16.2,34.6,22.2,47.8l7.7,16.5h-62.9c-5-10.1-24.9-55.6-29.7-64.6c-15.5-29-26.9-29-43.1-29
			h-8.4v93.7h-57.9V187.7H1431.8z M1401.5,229.4v52.5h23.9c14.8-0.7,18.5-0.7,24.6-4c8.4-4.4,12.4-12.8,12.4-22.2
			c0-26.2-25.6-26.2-32-26.2L1401.5,229.4L1401.5,229.4z"/>
		<path class="st3" d="M1780.6,253.3c-26.9-12.4-55.9-20.9-85.5-20.9c-26.6,0-42.4,6.7-52.5,13.1c-16.5,10.1-31.3,30-31.3,59
			c0,43.4,36.4,68,75.8,68c14.1,0,27.9-3.1,41.1-8.1v-26.9h-33v-42.8h91.2v94.6c-23.6,19.8-60.9,31-98.3,31
			c-73.7,0-136.3-43.8-136.3-117.8c0-71.7,57.6-117.9,138.8-117.9c45.4,0,76.4,13.2,90.2,18.8L1780.6,253.3L1780.6,253.3z"/>
		<polygon class="st3" points="2005.6,417.3 1836.2,417.3 1836.2,187.7 2003.2,187.7 2003.2,230.4 1894.1,230.4 1894.1,276.9 
			1998.2,276.9 1998.2,320 1894.1,320 1894.1,375.2 2005.6,375.2 		"/>
	</g>
</g>
</svg>
