<?xml version="1.0" encoding="utf-8"?>
<!-- Generator: Adobe Illustrator 24.0.2, SVG Export Plug-In . SVG Version: 6.00 Build 0)  -->
<svg version="1.1" id="Layer_1" xmlns="http://www.w3.org/2000/svg" xmlns:xlink="http://www.w3.org/1999/xlink" x="0px" y="0px"
	 viewBox="0 0 2500 1000" style="enable-background:new 0 0 2500 1000;" xml:space="preserve">
<style type="text/css">
	.st0{fill:#646464;}
	.st1{fill:#CCCCCC;}
	.st2{fill:#B1B1B1;}
	.st3{fill:#A9A9A9;}
	.st4{fill:#B7B7B7;}
	.st5{fill:#BCBCBC;}
	.st6{fill:#FFFFFF;}
	.st7{fill:#B6B6B6;}
</style>
<g>
	<path class="st0" d="M1332.5,29.1c1.1,0.9,2.5,0.8,3.8,0.9c33.1,2,65.7,7.1,97.7,15.7c28.8,7.7,56.6,18,83.4,31
		c40.2,19.3,76.8,43.9,110.1,73.5c30.7,27.3,57.5,58.1,80.6,92.1c2.4,3.5,2.1,4.4-2,4.9c-4.7,0.6-9.3-0.2-13.9-0.7
		c-1.8-0.2-2.6-1.7-3.5-3c-7-10.2-14.5-20.1-22.4-29.6c-15.6-18.9-32.7-36.3-51.4-52.2c-5.6-4.7-11.3-9.2-16.9-13.9
		c-3.1-2.6-6.3-2.3-9.2-0.3c-12.1,8.1-24.9,15.1-37.7,22.1c-3.4,1.8-3.8,3.1-2.4,6.7c1,2.5,2.5,4.6,4.5,6.4
		c6.2,5.8,10.9,12.9,16,19.5c8.9,11.4,16.7,23.7,24.6,35.9c1.3,2.1,2.8,4.1,4.1,6.2c1.1,1.9,0.9,2.6-1.3,3.1
		c-4.7,1.1-9.5,0.8-14.3,0.3c-2-0.2-2.8-1.9-3.8-3.3c-6.1-8.5-12.1-17.1-18.3-25.6c-8.8-12-18.3-23.4-28.6-34.2
		c-2.9-3.1-2.9-3.1-7.1-1.4c-23.8,9.1-47.5,18.4-72,25.5c-0.6,0.2-1.1,0.4-1.7,0.5c-2.1,0.5-2.9,1.7-2.3,3.8c0.7,3,1.3,6,2.6,8.8
		c2.8,6.2,5.7,12.5,8.3,18.8c2.9,6.7,2.6,7-4.5,7c-1.9,0-3.8-0.2-5.7,0c-4.2,0.6-6.3-1.4-7.9-5c-3.2-7-6.7-13.9-10.1-20.8
		c-0.4-0.8-0.8-1.6-1.2-2.3c-1.9-3.6-2.8-4-6.6-3.1c-10.7,2.4-21.3,4.6-32.1,6.2c-13.7,2-27.4,3.8-41.2,4.8
		c-9.3,0.7-18.6,1.6-27.9,1.9c-3,0.1-3.3,0.5-4,3.6c-0.7,3.3-0.3,6.7-0.4,10c-0.1,3.8-0.4,4.1-4.1,4.8c-3.6,0.7-7.3-0.2-10.9-0.2
		c-1.8,0-2.5-1.4-2.7-2.9c-0.2-1.9-0.2-3.8-0.3-5.7c-0.1-1.9,0.1-3.8-0.2-5.7c-0.4-3.1-1.7-4.2-4.9-4.4c-7.6-0.5-15.1-0.9-22.7-1.4
		c-26.9-1.7-53.6-5.5-80-10.9c-4.6-0.9-4.8-1-6.8,3.1c-3.8,7.7-7.6,15.4-11,23.3c-1.6,3.7-3.8,5.6-7.9,5.2c-2.9-0.2-5.8,0.1-8.7-0.1
		c-3.2-0.2-3.6-0.9-2.6-3.9c1.2-3.9,3-7.6,4.8-11.2c1.6-3.4,3.3-6.8,4.8-10.3c1-2.3,1.9-4.6,2.7-6.9c1.4-4.2,1.2-4.6-3-5.9
		c-24.6-7.8-48.8-16.7-72.8-26c-2.3-0.9-3.7-0.6-5.4,1.1c-7.6,8-14.8,16.4-21.7,25.1c-8.4,10.6-16.5,21.5-23.8,32.9
		c-2.4,3.7-5.2,5.6-9.6,5.4c-2.8-0.2-5.5,0.2-8.3,0.1c-3.4-0.1-3.7-0.7-2.2-3.6c0.8-1.5,1.7-3.1,2.6-4.6
		c11.7-20,25.4-38.7,40.3-56.5c1.4-1.7,2.8-3.3,4.2-5c3.4-4.1,3.2-5.5-1.5-7.9c-4.5-2.3-9-4.7-13.5-7.1c-8.7-4.7-17.2-9.9-25.6-15.1
		c-4.6-2.8-5.5-2.9-9.7,0.4c-9.1,7.3-18,14.8-26.4,22.8c-15.8,14.9-30.6,30.8-44.3,47.6c-6.4,7.8-12.6,15.7-18.2,24
		c-2.1,3-4.4,4.3-8,4c-3.6-0.2-7.3,0-10.9-0.1c-2.2-0.1-2.6-0.9-1.4-2.8c2.4-3.8,4.9-7.6,7.5-11.3c17.9-25.8,38.2-49.6,60.8-71.3
		c26.7-25.6,56-47.8,87.9-66.6c39.9-23.4,82.4-40.7,127.3-52c25.8-6.5,51.9-10.8,78.3-13.2c4-0.4,8.2,0.3,12.1-1.3
		C1298.7,29.1,1315.6,29.1,1332.5,29.1z"/>
	<path class="st1" d="M1280.9,980.4c-1.6-1.2-3.7-0.5-5.3-1.7c1.7-2.9,4.7-2.2,7.1-2c12.5,1.3,25,0.4,37.5,0.7
		c5.1,0.1,10.2,0,15.3-0.6c2.8-0.3,6.2-1.3,8.4,2c-1.5,0.6-2.9,1.1-4.4,1.7C1320,980.4,1300.4,980.4,1280.9,980.4z"/>
	<path class="st0" d="M1677.4,723.7c-36.6,0.4-69.8-5.5-101.9-17.7c-24.9-9.5-47.6-22.7-67.5-40.2c-11.3-9.9-20.3-22.1-28.1-35
		c-13.9-23-22-48-26.3-74.5c-2.7-16.7-4-33.5-3.7-50.4c0.3-19.5,2.4-38.9,5.6-58.2c3.1-18.7,8.4-36.6,16.8-53.5
		c14.5-29.2,34.7-53.4,62.9-70.2c18.1-10.8,37.6-18.4,57.8-24.3c24.9-7.3,50.3-10.8,76.2-11.3c33.5-0.6,66.2,4.1,98,14.8
		c27.6,9.3,52.9,22.9,74.9,42.1c15.1,13.1,27.1,28.8,35.3,47.2c10.1,22.6,16.6,46.3,20,70.8c2.5,18,4.7,36.1,3.4,54.3
		c-1,14.8-2.6,29.5-5.5,44.1c-4.4,22.6-11.5,44.1-21.7,64.8c-14.2,28.8-36.5,49.7-63.9,65.6c-13.2,7.6-27.3,12.8-41.8,17.4
		c-19.7,6.2-39.7,10.3-60.2,12.6C1697,723.5,1686.1,724,1677.4,723.7z"/>
	<path class="st0" d="M1368.2,704.3c-19.4,9.2-39.8,14.9-61,17.5c-41.3,5-81.6-0.1-120.9-13.3c-14.3-4.8-27.8-11.1-40.8-18.7
		c-1.4-0.8-2.7-1.7-4.2-2.3c-3.1-1.3-4.3-0.6-4.4,2.8c-0.1,6.3,0,12.5,0,18.8c0,1.2,0,2.3-0.1,3.5c-0.1,1.4-0.9,2.1-2.2,2.2
		c-1,0.1-2,0.1-3.1,0.1c-27.5,0-55,0-82.6,0c-0.9,0-1.7,0-2.6,0c-2,0-2.9-1.1-2.8-3c0-1,0-2,0-3.1c0-47.5,0-94.9,0-142.4
		c0-6.1,0-6.1,5.9-6.1c24.8,0,49.5,0,74.3,0c2.8,0,4.9,0.3,6.5,3.2c11.9,21.6,30.1,36.3,52.1,46.6c3.4,1.6,7,2.9,10.5,4.4
		c3.1,1.4,6.5,2.1,9.6,3.4c7,2,14,3.9,21.1,5.4c9.5,2,19.1,2.3,28.7,2.3c14.6,0.1,29.1-1.1,43.1-5.6c2.4-0.7,4.7-1.5,7-2.6
		c8.1-3.8,9.5-12.3,3.2-18.5c-2.3-2.3-4.9-4-8-5.2c-6.4-2.5-12.7-5-19.3-6.9c-42.9-12.9-85.9-25.8-128.8-38.8
		c-8.8-2.6-17.5-5.5-25.8-9.5c-1.4-0.7-3.2-0.7-4.4-1.7c-0.8-1.2-2.4-1.1-3.3-1.9c-21.7-11.3-40.6-26-55.2-46
		c-12.5-17.1-19.4-36.2-20.3-57.6c-0.6-13-0.3-25.9,2.2-38.7c5.4-27.1,17.5-50.4,39.8-67.7c19.4-15.1,41.4-24.7,65.2-30.3
		c20-4.7,40.2-6.4,60.7-5.8c23.9,0.7,47.5,4.2,70.7,10.4c10.9,2.9,21.2,7.3,31,12.8c0.9,0.9,2.5,0.8,3.3,2c4.5,2.4,8.9,4.9,13.4,7.3
		c1.2,0.6,2.3,1.3,3.5,1.8c3.6,1.5,5.2,0.6,5.2-3.4c0.1-4.7,0-9.3,0-14c0-5.7,0-5.7,5.9-5.7c18.2,0,36.4,0,54.6,0
		c8.2,0,16.3,0,24.5,0c4.9,0,4.9,0.1,5,4.8c0.8,44.1,0.2,88.2,0.4,132.3c0,6.8,0,6.8-6.7,6.8c-25.1,0-50.1-0.1-75.2,0.1
		c-3.9,0-6.3-1.2-8.6-4.4c-12.5-17.7-29.3-30.2-48.8-39.1c-17.5-8-35.9-13.1-54.9-15.6c-12.4-1.6-25-2-37.5-1.3
		c-4.8,0.3-9.5,1.3-13.9,3.4c-3.6,1.7-6.6,4.1-9,7.4c-3.1,4.1-3.2,8.3-1,12.7c1.7,3.5,4.3,6.2,7.7,8.1c4.6,2.6,9.5,4.4,14.5,5.9
		c47.6,13.7,95.3,27,142.6,41.5c40.6,12.4,71.6,37.5,91.9,75.1c8.3,15.5,11.8,32.4,12.3,50c0.5,18.2-2.4,35.7-9.5,52.4
		c-10.7,25.3-27.6,45.3-51.6,59.1c-2,1.2-4.1,2.3-6.1,3.4C1370.7,703.3,1369.3,703.5,1368.2,704.3z"/>
	<path class="st0" d="M884,714.8c-42.7,0-85.3,0-128,0c-7.5,0-6.4-0.5-6.4-6.5c0-29.7,0-59.4,0-89.1c0-0.7,0-1.5,0-2.2
		c0.1-4.1,0.3-4.4,4.6-4.4c16.9,0,33.8,0,50.7,0c6.5,0,6.5,0,6.5-6.6c0-68,0-136,0-204c0-5.9,0-5.9-6.1-6
		c-16.6-0.1-33.2,0.8-49.8,0.5c-6-0.1-6.1,0-6-5.9c0-30.7,0.1-61.4,0.2-92.1c0-0.9,0.1-1.7,0-2.6c-0.1-2.1,1-2.9,2.9-2.9
		c1.5,0,2.9,0,4.4,0c82,0,164,0,246,0c3.8,0,7.6-0.2,11.4-0.2c4.1,0,4.5,0.3,4.5,4.5c0,16.9,0,33.8,0,50.7c0,14,0.1,27.9,0.2,41.9
		c0,1.3,0,2.6,0,3.9c0,1.8-1,2.7-2.7,2.7c-1.3,0-2.6,0.1-3.9,0.1c-16.2,0-32.3,0-48.5,0c-1.2,0-2.3,0-3.5,0
		c-2.9,0.2-3.2,0.5-3.4,3.4c-0.1,1.3,0,2.6,0,3.9c0,67.3,0,134.5,0,201.8c0,7.6,0,6.9,6.9,6.9c16.2,0,32.3,0,48.5,0
		c1.3,0,2.6,0,3.9,0.1c1.5,0,2.5,0.8,2.5,2.4c0.1,1.2,0.1,2.3,0.1,3.5c0,30,0,60,0,90c0,0.3,0,0.6,0,0.9c0,5.2-0.1,5.3-5.4,5.3
		C970.2,714.8,927.1,714.8,884,714.8z"/>
	<path class="st0" d="M1343.9,978.8c-4.4-0.4-8.7,0.6-13,0.6c-16.4,0.1-32.8,0.8-49.1-0.6c-2-0.2-4.1-0.1-6.1-0.1
		c-36.5-2.4-72.1-9.6-107-20.3c-24.1-7.4-47.6-16.5-70.2-27.7c-32.2-15.9-62.2-35.3-90-58c-29.5-24.2-56.1-51.2-79.4-81.4
		c-6.8-8.8-13.1-17.8-19.2-27.1c-0.2-0.4-0.5-0.7-0.7-1.1c-1.4-2.5-1.2-3.1,1.5-3.4c4.5-0.4,9-0.4,13.5-0.1c2.5,0.2,3.8,1.8,5.1,3.7
		c6.9,9.9,14.2,19.6,21.8,28.9c20.2,24.8,42.7,47.3,67.8,67.1c4.1,3.2,6.2,3.5,10.3,1.1c12.6-7.3,25.2-14.6,37.7-22
		c1.3-0.7,2.7-1.3,3.2-2.8c0.9-2.3,0.7-4.3-1-6.5c-6.9-8.3-13.6-16.7-20.3-25.2c-9.9-12.6-19.3-25.6-27.3-39.5
		c-2.6-4.6-2.4-5.3,3.1-5.5c3.8-0.2,7.6,0.3,11.3,0.4c2.1,0.1,2.9,1.8,3.8,3.2c6.1,9.4,12.5,18.6,19.3,27.5
		c8.3,10.9,17.1,21.4,26.1,31.6c0.6,0.7,1.2,1.2,1.8,1.9c1.8,2,3.8,2.4,6.3,1.2c3.7-1.7,7.5-3.2,11.3-4.7
		c20.5-8.3,41.5-15.2,62.6-21.9c0.1,0,0.3-0.1,0.4-0.1c5-1.6,5.2-2,3.1-6.7c-2.9-6.4-6-12.6-8.8-19c-1.4-3.2-2.7-6.5-3.7-9.8
		c-0.8-2.5-0.4-3.1,2.3-3.5c4.1-0.6,8.1-0.4,12.2,0.1c2.1,0.3,2.8,1.9,3.5,3.5c4.1,8,8.2,16.1,12.3,24.1c2.3,4.5,2.4,4.7,7.4,3.7
		c19.5-3.6,39.1-6.4,58.7-8.7c13.9-1.6,27.8-2.7,41.8-3.5c4.7-0.3,5.5-1,5.6-5.7c0.1-3-0.3-6.1-0.3-9.2c0-3.5,0.5-4,4-4.1
		c3.1-0.1,6.1-0.1,9.2,0c3.3,0.1,4.1,0.7,4.4,4.1c0.2,2.3,0.1,4.6,0.2,7c0,1-0.2,2-0.1,3c0.2,3.2,0.7,3.8,3.8,4.2
		c2,0.2,4.1,0.4,6.1,0.5c32.9,1.8,65.5,6.2,97.8,12.9c4.5,0.9,4.5,0.9,6.6-3.3c4.1-8.2,8.3-16.4,12.3-24.6c1.3-2.7,2.9-4,6-3.8
		c3.2,0.3,6.4,0,9.6,0.1c2.5,0.1,2.8,0.6,2.3,3c-0.9,4.4-2.7,8.6-4.5,12.7c-2.4,5.6-4.9,11.2-7.2,16.9c-1.6,3.9-1.3,4.4,2.6,5.6
		c24.2,7.6,47.9,16.6,71.5,25.6c0.7,0.3,1.4,0.4,2,0.8c2.4,1.2,4.1,0.4,5.7-1.5c5.1-6,10.3-11.9,15.3-17.9
		c11-13.4,21.2-27.4,30.7-41.9c1.5-2.3,3.2-3.5,6-3.3c3.9,0.2,7.9,0,11.8,0.1c2.8,0.1,3.2,0.7,1.7,3.2c-3,5.1-6.2,10.2-9.4,15.2
		c-11.1,17.1-23.3,33.4-36.9,48.7c-5,5.6-4.6,7.8,2.1,11.4c12.7,6.9,25.1,14.1,37.6,21.4c3.9,2.3,7,2,10.3-0.8
		c13-10.4,25.3-21.5,36.8-33.5c14.7-15.2,28.4-31.2,41.2-48.1c3.7-4.9,7.3-9.8,10.8-14.8c1.5-2.1,3.2-3.1,5.8-2.9
		c3.6,0.2,7.3,0.1,10.9,0.3c3.2,0.2,3.6,1,1.8,3.7c-7.9,12.3-16.4,24.1-25.4,35.5c-25.1,31.8-53.6,60.2-86,84.7
		c-45.2,34.3-95.1,59.6-149.5,75.9c-32.9,9.9-66.5,15.9-100.7,18.8C1347.4,978.6,1345.6,978.6,1343.9,978.8z"/>
	<path class="st2" d="M1202.3,617.8c-3.5-0.5-6.8-1.3-9.6-3.4C1196.1,615,1199.4,615.9,1202.3,617.8z"/>
	<path class="st3" d="M1313.2,314c-1.3-0.3-2.5-0.8-3.3-2C1311.3,312.1,1312.5,312.6,1313.2,314z"/>
	<path class="st4" d="M1115.8,534.8c1.4,0.1,2.7,0.5,3.3,1.9C1117.8,536.4,1116.6,535.9,1115.8,534.8z"/>
	<path class="st5" d="M1368.2,704.3c1-1,2.1-1.6,3.6-1.7C1370.8,703.7,1369.7,704.2,1368.2,704.3z"/>
	<path class="st6" d="M1299.2,160.2c0,15.1,0,30.2,0,45.4c0,4.6-0.3,4.8-5,5.1c-6.7,0.4-13.4,0.3-20.1-0.1
		c-23.4-1.5-46.6-4.8-69.6-9.2c-0.6-0.1-1.1-0.2-1.7-0.3c-4.9-0.8-6.5-2.6-4-8.5c2.1-4.8,4.9-9.2,7.6-13.7
		c14.7-25.1,31.4-49,49.4-71.8c2-2.6,4-3.4,7.4-2.9c10.1,1.5,20.2,2.6,30.3,3.8c4.6,0.5,4.8,0.6,5.1,5.3c0.8,11,0.7,22.1,0.7,33.1
		c0,4.7,0,9.3,0,14C1299.4,160.2,1299.3,160.2,1299.2,160.2z"/>
	<path class="st6" d="M1317.6,156.8c0-13.5-0.2-27.1,0.1-40.6c0.2-8.6-0.4-6.9,7.3-8.2c9.2-1.5,18.4-2.6,27.6-4.1
		c2.4-0.4,3.8,0.2,5.2,2c20.3,25.2,38.5,51.8,54.2,80.2c1.5,2.8,3.1,5.6,4.6,8.4c1.7,3.3,1.5,3.9-2.1,4.8c-7.6,2-15.3,3.6-23,4.9
		c-21.5,3.8-43.3,5.8-65.1,6.6c-1.6,0.1-3.2,0.2-4.8,0.4c-2.2,0.2-3.2-0.8-3.2-3c-0.2-5.7-0.7-11.3-0.7-17
		C1317.5,179.8,1317.6,168.3,1317.6,156.8C1317.6,156.8,1317.6,156.8,1317.6,156.8z"/>
	<path class="st6" d="M1402.1,85.8c1.9,0.2,3.5,0.9,5.1,1.6c10.3,4.3,19.5,10.3,28.9,16.1c17,10.5,32.8,22.6,48.2,35.3
		c8.5,7.1,16.7,14.5,24.6,22.2c0.3,0.3,0.6,0.6,0.9,0.9c3.3,3.6,2.9,6.1-1.5,8c-9.9,4.3-19.8,8.4-30,12c-12.1,4.3-24.3,8-36.8,10.8
		c-4.4,1-4.4,1-6.6-2.8c-17.4-30.3-36.2-59.7-56.8-87.9c-0.6-0.8-1.2-1.6-1.6-2.6c-0.6-1.5-0.5-3,1.1-3.7c7.7-3.4,15.5-6.6,23.3-9.9
		C1401.2,85.8,1401.7,85.8,1402.1,85.8z"/>
	<path class="st6" d="M1238,99c0.1,2.3-1.1,4.1-2.4,5.8c-12.6,16.2-24.1,33.2-34.7,50.8c-6.7,11.2-13.2,22.6-19.8,34
		c-2.9,4.9-3.7,5.3-9.1,3.8c-20.6-5.8-40.9-12.6-60.7-20.7c-1.3-0.5-2.7-1.1-4-1.7c-2.9-1.4-3.5-3.3-1.9-5.9
		c0.8-1.2,1.8-2.2,2.9-3.2c10.7-9.8,21.5-19.6,32.9-28.7c21.4-17.2,44-32.5,68.1-45.7c1.9-1.1,3.7-1.3,5.8-0.6
		c7.2,2.4,13.9,6,21,8.7C1237.5,96.1,1238.4,97.2,1238,99z"/>
	<path class="st6" d="M1307.5,90.8c-28.2-0.4-54.2-5.1-78.8-16.7c-6.6-3.1-12.7-7.1-18.9-10.9c-1.6-1-2.8-2.2-2.6-4.2
		c0.2-2.2,2-2.6,3.8-3c10.8-2.3,21.7-4.4,32.7-5.9c24-3.2,48.1-4.8,72.3-4.3c14.6,0.3,29.1,1.3,43.6,2.8c14.1,1.5,28,3.9,41.8,6.7
		c1.3,0.3,2.6,0.5,3.8,0.9c2.8,0.9,3.4,3.6,1.2,5.6c-0.9,0.8-1.9,1.4-2.9,2c-17.5,11.3-36.6,18.4-56.9,22.7
		C1333.3,89.4,1319.8,90.5,1307.5,90.8z"/>
	<path class="st6" d="M1084,159.4c-2.4-0.2-4.4-0.7-6.2-1.7c-11.7-6.6-23.4-13.1-35-19.7c-3.8-2.2-4-4.4-0.9-7.6
		c1.6-1.7,3.5-3.1,5.4-4.4c24.2-16.3,49.8-30.1,76.6-41.6c12.4-5.3,25.1-10,37.9-14.6c4.9-1.8,9.8-3.4,14.9-4.5
		c3-0.6,5.5-0.2,7.8,1.5c1.9,1.4,3.7,2.8,5.4,4.4c2.9,2.6,2.7,5.3-0.6,7.4c-6.6,4.3-13.3,8.3-19.9,12.6
		c-27,17.8-52.3,37.9-75.9,60.1c-2.2,2.1-4.4,4.2-6.6,6.3C1086.2,158.7,1085.2,159.5,1084,159.4z"/>
	<path class="st6" d="M1544.8,152.2c-2.2,1.3-4.4,2.8-6.7,4c-4.8,2.7-7.3,2.3-11.3-1.6c-19-18.7-39.2-36-60.9-51.7
		c-11.6-8.4-23.4-16.2-35.8-23.4c-1.1-0.7-2.3-1.3-3.3-2.1c-3.1-2.1-3.4-4.9-0.8-7.6c2.1-2.2,5-3.5,7.5-5.2c1.3-0.9,2.9-0.1,4.2,0.3
		c10,2.7,19.9,5.7,29.6,9.1c33.5,11.8,64.7,28.3,94.5,47.7c3.7,2.4,7.3,4.8,10.9,7.3c3.7,2.6,3.6,5-0.3,7.3c-8,4.7-16.1,9.4-24.2,14
		C1547.2,151.2,1545.9,151.4,1544.8,152.2z"/>
	<path class="st7" d="M1544.8,152.2c0.9-1,2.1-1.7,3.5-1.7C1547.3,151.5,1546.2,152.2,1544.8,152.2z"/>
	<path class="st6" d="M1606.1,513.5c0.3-21.8,0.6-43.6,2.9-65.3c0.9-8.6,2.6-16.9,6.4-24.8c5.2-10.7,13-18.3,24.3-22.6
		c20.8-7.9,41.9-9.7,63.4-3.8c12.4,3.4,23,9.6,30.3,20.7c2.9,4.3,4.4,9.1,5.8,14.1c4.6,16.5,6.4,33.4,7.1,50.4
		c0.7,17.9,0,35.8-0.6,53.6c-0.5,13.5-1.1,27.1-4.1,40.3c-2.5,11.1-7.3,20.8-16.2,28.3c-6.4,5.4-14,8.4-21.9,10.5
		c-18.2,4.9-36.5,5.2-54.8,0.1c-10.9-3.1-20.6-8.1-27.5-17.5c-4.9-6.6-7.2-14.3-9.2-22c-3.2-12.4-4.9-25.1-5.4-37.9
		C1606.4,529.5,1605.9,521.5,1606.1,513.5z"/>
	<path class="st6" d="M1320.3,875c-0.1-19.4-1.1-38.7-0.6-58c0.1-5.4,0.3-10.8,0.5-16.1c0.2-4.1,0.6-4.6,4.6-4.4
		c14.5,0.7,29.1,1.3,43.6,2.9c16.5,1.8,32.9,4.4,49.1,8.2c5.8,1.3,6,2,3.2,7.3c-15.4,28.8-33.4,55.9-53.2,82c-1.5,2-3.1,3.8-4.5,5.9
		c-1.3,1.9-3,2.5-5.2,2.5c-2.9,0-5.8-0.4-8.7-1c-7.3-1.7-14.7-2.2-22-3.1c-1.2-0.2-2.3-0.3-3.5-0.5c-3.1-0.7-3.2-0.8-3.3-4
		c-0.1-3.3,0-6.7,0-10C1320.3,882.5,1320.3,878.7,1320.3,875z"/>
	<path class="st6" d="M1302,848.5c0,14.7,0,29.4,0,44.1c0,1.3-0.1,2.6,0,3.9c0,2.1-0.9,3.2-3,3.5c-4.3,0.5-8.6,1.3-13,1.7
		c-5.5,0.5-11,1.1-16.3,2.7c-4.4,1.3-7.5,0.3-10.5-3.6c-21.1-26.5-39.6-54.7-55.7-84.4c-3.8-6.9-3.4-7.7,4.3-9.5
		c21.1-4.8,42.4-7.6,63.9-9.2c8.3-0.6,16.6-0.6,24.8-1.3c4.8-0.4,5.3,0.2,5.3,4.9c0,15.7,0,31.4,0,47.1
		C1301.9,848.5,1302,848.5,1302,848.5z"/>
	<path class="st6" d="M1195.2,913.3c-14.1-8.6-27.8-18-41-28.1c-15.5-11.9-30.4-24.4-44.5-37.9c-0.6-0.6-1.3-1.2-1.9-1.8
		c-2.7-3.2-2.2-5.7,1.6-7.5c19.4-9,39.6-16.2,60.2-22c2.2-0.6,4.5-1.3,6.7-1.9c4.2-1.1,5-0.8,7.1,2.9c5.4,9.7,10.8,19.3,16.6,28.7
		c12.4,20.4,25.7,40.2,39.7,59.5c3.9,5.4,3.8,5.7-2.1,8.3c-6.6,2.8-13.2,5.5-19.7,8.4c-2.8,1.3-5.2,1.2-7.8-0.4
		c-4-2.4-8.1-4.6-12.1-6.9C1197,914.4,1196.2,913.7,1195.2,913.3z"/>
	<path class="st6" d="M1407,922.1c-1.8,0-3.2-0.4-4.5-0.9c-6.6-2.6-13.2-5.3-19.9-7.9c-1.3-0.5-1.8-1.3-1.6-2.7
		c0.3-2.2,1.1-4.2,2.5-6c15.8-21.5,30.4-43.7,44.1-66.6c3.9-6.6,7.7-13.4,11.6-20c2.2-3.8,2.3-3.9,6.5-3
		c18.3,3.7,35.9,9.7,53.3,16.7c4.3,1.7,8.6,3.5,12.9,5.4c3.9,1.7,4.3,3.3,1.5,6.5c-6.9,7.9-14.8,14.8-22.6,21.8
		c-23.8,21.2-50,39-77.9,54.3C1410.8,920.7,1409,922,1407,922.1z"/>
	<path class="st6" d="M1311.2,962.7c-31.9-0.4-63.8-3.3-95.2-10.1c-1-0.2-2-0.3-3-0.7c-2.2-0.9-2.8-3.7-1.1-5.4
		c0.9-0.9,2.1-1.6,3.2-2.3c21.7-13.7,45.4-21.5,70.7-24.8c33.7-4.4,66.5-0.7,98.1,12.3c8.5,3.5,16.6,7.8,24.2,12.9
		c0.7,0.5,1.4,1,2.2,1.5c1.4,1,1.7,2.3,1.4,3.9c-0.3,1.6-1.6,2-2.9,2.2c-7.6,1.5-15.1,3.1-22.7,4.3c-20.9,3.3-41.8,5.5-63,5.8
		C1319.2,962.3,1315.3,962.8,1311.2,962.7z"/>
	<path class="st6" d="M1439.3,944c-0.6-0.1-1.4-0.2-2-0.5c-2.6-1.5-5.4-2.9-7.6-5.1c-3.2-3.3-3-5.4,0.8-7.9
		c11.2-7.3,22.3-14.8,33.4-22.4c15-10.4,29-21.9,42.3-34.4c8-7.5,16.2-14.7,24.3-22c3.9-3.5,6.1-3.8,10.9-1.3
		c5,2.7,9.9,5.5,14.9,8.2c6.6,3.7,13.2,7.4,19.8,11.1c0.1,0.1,0.3,0.1,0.4,0.2c4.6,2.7,4.7,5.4,0.6,8.7c-7,5.7-14.8,10.3-22.5,15
		c-27.4,16.8-56.1,30.8-86.4,41.5c-8.7,3-17.4,5.8-26.3,8.1C1441.1,943.6,1440.3,943.7,1439.3,944z"/>
	<path class="st6" d="M1086.3,849.4c1.9-0.2,3,1.2,4.3,2.4c7.3,7.4,14.7,14.5,22.4,21.4c22.5,20.3,47,38.1,72.8,54
		c2.2,1.4,4.5,2.7,6.7,4.1c2.4,1.6,2.8,3.5,1.2,5.9c-2.1,3.2-5.7,4.5-8.8,6.2c-2,1.1-4,0.1-5.9-0.4c-31.7-8.8-61.9-21.3-90.7-37.1
		c-14.3-7.8-28.2-16.3-41.5-25.7c-0.6-0.4-1.3-0.8-1.8-1.2c-2.6-2.3-2.5-6.3,0.5-8c11.7-6.9,23.1-14.2,35.4-19.9
		C1082.5,850.3,1084.2,849.4,1086.3,849.4z"/>
	<path class="st2" d="M1195.2,913.3c1.2,0,2.1,0.6,2.8,1.5C1196.8,914.7,1195.9,914.2,1195.2,913.3z"/>
</g>
</svg>
