<?xml version="1.0" encoding="utf-8"?>
<!-- Generator: Adobe Illustrator 24.0.2, SVG Export Plug-In . SVG Version: 6.00 Build 0)  -->
<svg version="1.1" id="Layer_1" xmlns="http://www.w3.org/2000/svg" xmlns:xlink="http://www.w3.org/1999/xlink" x="0px" y="0px"
	 viewBox="0 0 2500 534" style="enable-background:new 0 0 2500 534;" xml:space="preserve">
<style type="text/css">
	.st0{opacity:0.61;}
	.st1{fill:#747474;}
	.st2{fill:#929292;}
	.st3{fill:#909090;}
	.st4{fill:#9C9C9C;}
	.st5{fill:#9B9B9B;}
	.st6{fill:#939393;}
	.st7{fill:#989898;}
	.st8{fill:#FFFFFF;}
</style>
<g class="st0">
	<path class="st1" d="M437.3,392.9c-2.5,0.6-5.1,0.9-7.7,0.8c-95.9,8.7-190.8,2.9-282.9-26.3c-37.5-11.9-72.9-30.7-73.8-79.2
		c-0.4-59.4,75.1-113.5,123.7-88.5c21.9,55.5,67.1,81.8,120.9,99.2c77.2,24.9,155,45.2,237.2,41.4c23.7,26.3,21.9,32.9-10.4,42.1
		C509.2,392.4,472.4,384.2,437.3,392.9z"/>
	<path class="st1" d="M420.4,125.7c7.9-0.6,15.8-1.2,23.8-1.9c101.8-10.7,201.8-6.2,298.6,31.8c38.4,15,60.9,39.8,61.8,82
		c-6,45.8-54.8,90.6-97.3,87.9c-24.1-1.5-33.3-21.1-42.6-39.6c-33.5-50.4-89.1-63.5-141.2-80.4c-51.4-16.7-105.6-21.4-159.3-26.7
		c-17.3-1.7-37.1,1.5-47-19.1c7.1-30.7,34.8-24.5,55.3-29.9C387.9,125.7,404.9,132.9,420.4,125.7z"/>
	<path class="st2" d="M686.3,268.7c14.8,8.4,5.6,37.8,19.9,36.2c24.9-2.9,49.4-15.6,69.1-32.9c9-7.9,14.7-19.6,21.9-29.7
		c5.7-5.3,11.3-4.9,17,0c12.1,30.5-4.8,50.6-25.6,68.4c-29.1,24.9-63.9,38.8-100.4,48.9c-82.1,22.9-165.4,36.5-251,33.2
		c33.8-13.6,71.2-6.9,105.4-18.3c10.5-3.5,28.8-7.6,1.9-16.1c-1.7-18.5,11-25.4,25.2-25.4C620.9,333,657.3,308.1,686.3,268.7z"/>
	<path class="st3" d="M420.4,125.7c-33.3,11.4-70.8,9.8-100.3,32.8c-0.3,8.9-3.6,18.8-11.5,20.4c-41.2,8.3-79.4,28.4-122,30.7
		c-51.2,3.5-83.1,35.4-109.8,74.9c-2.8,5.7-5.5,5.7-8.1-0.2c-15.6-28.1-5.4-50.6,14.9-71.4c24.1-24.8,54.6-37.8,86.6-48.7
		C251.2,136.6,334.6,123.3,420.4,125.7z"/>
	<path class="st4" d="M814.3,242.3c-5.7,0-11.3,0-17,0c-13.1-57.1-62.3-70-107.7-84.9c-79.5-26-162-34.4-245.4-33.6
		c92.7-19.9,185.7-20.9,277.6,2.5C798.3,146,809.9,163,814.3,242.3z"/>
	<path class="st5" d="M68.5,284.3c2.7,0,5.4,0.1,8.1,0.2c11.7,42.7,49.7,53.5,84,65.9c86.7,31.4,177,42.9,268.9,43.3
		c-97.8,17.2-195.7,20.8-291.6-8.6C78.5,366.8,66.5,345.6,68.5,284.3z"/>
</g>
<g>
	<path class="st3" d="M2301.4,274.9c0.1,113.4-26.5,154.8-105.7,164.8c-102.9,12.9-141.2-20.6-142.6-125.3c-0.2-17.1,0-34.2,0-51.3
		c0-153,0.6-153.9,101.1-153.3C2274.5,110.5,2301.3,140.6,2301.4,274.9z"/>
	<path class="st2" d="M1877.3,109.7c11.4,0.1,22.9-1.2,34.1,0.3c23.7,3.2,61.3-8.1,63.6,25.3c2.5,36.8-35.9,25.4-58.9,29.3
		c-28.8,4.9-70-10.3-77.6,32.7c-8.3,46.7,31.9,44.5,62.5,48.4c14.6,1.9,29.7,5.2,30.6,22.9c1.1,21.2-14.3,28.6-32.5,32.1
		c-26.6,5.2-64.3,0.1-60.6,42.3c3.8,43.3,42.5,36.5,72.6,41.6c24.8,4.2,67.7-11.3,64.2,32.4c-2.6,32.6-40.7,22.4-64.6,23.4
		c-122.6,5.3-145.4-16.8-146-138.6c-0.1-25.6-0.3-51.3-0.3-76.9C1764.7,110.3,1765.1,109.8,1877.3,109.7z"/>
	<path class="st6" d="M884.1,281.1c3.3-70.3,1.4-128.7,57.2-159.8c44.5-24.7,94-26.8,139.1,1.7c26.9,16.9,58.9,43,38.2,75.4
		c-23.1,36.3-45.7,2.1-68.5-14.3c-47.6-34.5-79.8-16.6-95.9,36.4c-10.2,33.7-7.2,67.8-0.7,101.9c5.2,27,15.9,49.5,44.6,57.2
		c29.3,7.9,49.6-5.2,63.5-30.6c12.9-23.4,29-51.7,57.6-26.8c22.3,19.4,7.5,48.7-7.4,70c-31.8,45.2-78.7,54-129.6,47.1
		c-47.3-6.4-79-34.1-89.6-80.4C885.8,328.6,885.7,296.8,884.1,281.1z"/>
	<path class="st2" d="M1427.9,389.7c3,47.5-21.6,60.8-45.5,38.4c-55.7-52-105.1-64.4-159.5-1.7c-10.2,11.8-26.4,12.7-39.5,5.2
		c-14.5-8.3-14.7-23.6-9.6-37.8c29.8-83.4,57.6-167.7,91.3-249.5c15.9-38.5,52.5-43.7,69.9-3.6
		C1371.4,224.5,1399.4,311.8,1427.9,389.7z"/>
	<path class="st2" d="M1583.1,292.2c42.6-51.2,41-103,60.8-146.3c10.6-23.1,25.9-40.3,52.7-30c28.1,10.9,13.4,33.3,7.6,51
		c-24.9,75.9-50.4,151.6-76.2,227.2c-6.5,19.1-14.9,39-39.4,39.1c-24.1,0.1-34.1-18.7-40.5-38.1c-25.1-75.8-49.9-151.8-73.9-228
		c-5.7-18-17-40.9,11.3-50.3c23.7-7.9,37.9,8.1,45.4,28.2C1547.6,189.9,1563,235.4,1583.1,292.2z"/>
	<path class="st7" d="M2431.7,437.3c-40.7,6-67.5-6.2-67.6-52.3c-0.2-73.9-0.5-147.8,0.5-221.6c0.3-19.6,2.5-43.5,28.5-45.3
		c31.7-2.1,35.6,24.3,36,47c1.6,90.9,1.6,181.9,2.1,272.8C2431.1,437.9,2431.7,437.3,2431.7,437.3z"/>
	<path class="st8" d="M2115,272.6c13.7-37.1-18.8-102.4,54.4-103.7c66.9-1.2,71.5,54.5,71.6,104.1c0.2,49.3-2.6,106.5-69.4,105.6
		C2101.4,377.7,2127.1,313.3,2115,272.6z"/>
	<path class="st8" d="M1302.1,224.7c22.3,38.5,46,66.2,14.1,98.3c-5.3,5.3-25.7,5.1-30.7-0.3
		C1255.7,290.2,1277.6,262.6,1302.1,224.7z"/>
</g>
</svg>
