<?xml version="1.0" encoding="utf-8"?>
<!-- Generator: Adobe Illustrator 24.0.2, SVG Export Plug-In . SVG Version: 6.00 Build 0)  -->
<svg version="1.1" id="Capa_1" xmlns="http://www.w3.org/2000/svg" xmlns:xlink="http://www.w3.org/1999/xlink" x="0px" y="0px"
	 viewBox="0 0 307.4 52.5" style="enable-background:new 0 0 307.4 52.5;" xml:space="preserve">
<style type="text/css">
	.st0{fill:#555B6E;}
	.st1{fill:#565C6F;}
	.st2{fill:#F1F1F1;}
	.st3{fill:#F4F4F4;}
	.st4{fill:#585E70;}
	.st5{fill:#ACC4C3;}
	.st6{fill:#595F72;}
	.st7{fill:#575D6F;}
	.st8{fill:#575D70;}
	.st9{fill:#ABC4C3;}
	.st10{fill:#585D70;}
	.st11{fill:#AAC0BF;}
	.st12{fill:#DDDDDD;}
	.st13{fill:#595E71;}
	.st14{fill:#5E6476;}
	.st15{fill:#5E6375;}
	.st16{fill:#9397A3;}
	.st17{fill:#696E7F;}
	.st18{fill:#666C7D;}
	.st19{fill:#6B7080;}
	.st20{fill:#727787;}
	.st21{fill:#707585;}
	.st22{fill:#686E7F;}
	.st23{fill:#6C7182;}
	.st24{fill:#63697A;}
	.st25{fill:#747988;}
	.st26{fill:#F2F2F4;}
	.st27{fill:#F9F9FA;}
	.st28{fill:#FEFEFE;}
	.st29{fill:#F3F4F5;}
	.st30{fill:#F5F5F6;}
	.st31{fill:#9EB6B5;}
	.st32{fill:#C8C8C8;}
	.st33{fill:#D6D6D6;}
	.st34{fill:#CDCDCD;}
	.st35{fill:#D4D4D4;}
	.st36{fill:#DBDBDB;}
	.st37{fill:#989898;}
	.st38{fill:#E0E0E0;}
	.st39{fill:#B5B5B6;}
	.st40{fill:#C3C3C3;}
	.st41{fill:#D8D8D8;}
	.st42{fill:#BDE1D9;}
	.st43{fill:#BDE1DA;}
	.st44{fill:#585F71;}
	.st45{fill:#BCDFD8;}
	.st46{fill:#4A4A4B;}
	.st47{fill:#B6D8D2;}
	.st48{fill:#7B7B7B;}
	.st49{fill:#4C4C4D;}
	.st50{fill:#CBCFD0;}
	.st51{fill:#859D9C;}
	.st52{fill:#5C5C5C;}
	.st53{fill:#74848E;}
	.st54{fill:#777778;}
	.st55{fill:#676F7E;}
	.st56{fill:#616B7B;}
	.st57{fill:#606979;}
	.st58{fill:#9F9F9F;}
	.st59{fill:#A6B7B6;}
	.st60{fill:#C0C6C5;}
	.st61{fill:#FCFCFC;}
	.st62{fill:#FBFBFB;}
	.st63{fill:#F7F7F8;}
	.st64{fill:#9FB7B6;}
	.st65{fill:#C5C7C7;}
	.st66{fill:#A8A8A8;}
	.st67{fill:#A6A9A9;}
	.st68{fill:#969696;}
	.st69{fill:#C6C6C6;}
	.st70{fill:#CBCCCC;}
	.st71{fill:#BCE0D8;}
	.st72{fill:#C8CECF;}
	.st73{fill:#6E7382;}
	.st74{fill:#737373;}
	.st75{fill:#8EA7A6;}
	.st76{fill:#7F7F7F;}
	.st77{fill:#818181;}
	.st78{fill:#A1B3B2;}
	.st79{fill:#8BA4A3;}
	.st80{fill:#959595;}
	.st81{fill:#8F8F8F;}
	.st82{fill:#979999;}
	.st83{fill:#797979;}
	.st84{fill:#949494;}
	.st85{fill:#BBBBBB;}
	.st86{fill:#9A9A9A;}
	.st87{fill:#92ABAE;}
	.st88{fill:#636D7C;}
	.st89{fill:#778791;}
	.st90{fill:#D0D0D0;}
	.st91{fill:#E1E1E2;}
	.st92{fill:#8A8A8B;}
	.st93{fill:#BDBDBE;}
	.st94{fill:#BAD5D1;}
	.st95{fill:#B0B0B0;}
	.st96{fill:#636879;}
	.st97{fill:#AAABAD;}
	.st98{fill:#9F9FA1;}
	.st99{fill:#A8A8AA;}
	.st100{fill:#626C7B;}
	.st101{fill:#7A8B94;}
	.st102{fill:#656565;}
	.st103{fill:#A0B6B5;}
	.st104{fill:#8A8A8A;}
	.st105{fill:#8D8D8D;}
	.st106{fill:#6D6D6D;}
	.st107{fill:#888B8B;}
	.st108{fill:#E6E6E6;}
	.st109{fill:#BCE1D9;}
	.st110{fill:#BBDFD7;}
	.st111{fill:#B9D9D3;}
	.st112{fill:#8C8C8C;}
	.st113{fill:#5C6576;}
	.st114{fill:#626262;}
	.st115{fill:#B7DAD3;}
	.st116{fill:#49494A;}
	.st117{fill:#B0D1CD;}
	.st118{fill:#4E4E50;}
	.st119{fill:#BDBDC0;}
	.st120{fill:#B4B9B8;}
	.st121{fill:#B8B8B9;}
	.st122{fill:#636567;}
	.st123{fill:#BCC2C3;}
	.st124{fill:#91A9AD;}
	.st125{fill:#4C4C4C;}
	.st126{fill:#797A7B;}
	.st127{fill:#909192;}
	.st128{fill:#636C7C;}
	.st129{fill:#B1B6B5;}
	.st130{fill:#5E6777;}
	.st131{fill:#BCBCBE;}
	.st132{fill:#949595;}
	.st133{fill:#676767;}
	.st134{fill:#797A7A;}
	.st135{fill:#6D6F6F;}
	.st136{fill:#7B7C7C;}
	.st137{fill:#9DB6B4;}
	.st138{fill:#6C6D6D;}
	.st139{fill:#C7C7C7;}
	.st140{fill:#7D7E7E;}
	.st141{fill:#878989;}
	.st142{fill:#686969;}
	.st143{fill:#8A8D8D;}
	.st144{fill:#868988;}
	.st145{fill:#767676;}
	.st146{fill:#6A6A6A;}
	.st147{fill:#F2F2F2;}
	.st148{fill:#E9E9E9;}
	.st149{fill:#5B6173;}
	.st150{fill:#5D6274;}
	.st151{fill:#6C7282;}
	.st152{fill:#7A7F8D;}
	.st153{fill:#606577;}
	.st154{fill:#878B99;}
	.st155{fill:#606677;}
	.st156{fill:#8D919E;}
	.st157{fill:#8F939F;}
	.st158{fill:#8C909C;}
	.st159{fill:#5C6274;}
	.st160{fill:#64697A;}
	.st161{fill:#A0A0A0;}
	.st162{fill:#BBBCBC;}
	.st163{fill:#A9A9A9;}
	.st164{fill:#777777;}
	.st165{fill:#B8B8B8;}
	.st166{fill:#707F8A;}
	.st167{fill:#AFCFCB;}
	.st168{fill:#6E7C88;}
	.st169{fill:#66717F;}
	.st170{fill:#687481;}
	.st171{fill:#E7E7E7;}
	.st172{fill:#D3D3D3;}
</style>
<g>
	<path class="st0" d="M222.5,42.1c-1.7,1-3.5,1.5-5.5,1.4c-1.4,0-1.9-0.7-1.6-2.1c0.3-1.4,1.2-2.5,2.3-3.4c3.2-3,7.1-5.1,11.1-6.8
		c2.1-0.9,3.3-2.2,4.1-4.2c1.5-3.7,3.1-7.3,3.9-11.3c0.1-0.5,0.1-0.9,0.2-1.4c-0.7,0-1,0.3-1.4,0.7c-2.5,2.2-5.1,4.3-5.7,7.9
		c-0.1,0.7-0.8,0.7-1.2,0.7c-0.5,0.1-0.4-0.6-0.4-1c0-0.5,0.1-1.1,0.3-1.6c1.9-3.3,4.5-5.9,8-7.5c1.9-0.8,2.4-0.4,2.1,1.7
		c-0.7,4.3-2.4,8.2-4.1,12.2c-0.2,0.5-0.4,1-0.8,1.7c2-0.8,3.8-1.5,5.4-2.6c0.9-0.6,1.8-1.1,2.9-1.4c1.3-0.4,1.8,0.1,1.7,1.4
		c-0.1,0.7-0.4,1.4-0.4,2.1c-0.1,0.6,0.2,1.1,0.9,0.8c1.3-0.5,2.9-0.6,3.2-2.5c0.1-0.6,0.7-0.8,1.1-0.7c0.7,0.1,0.2,0.7,0.2,1.1
		c0,0.2-0.1,0.4-0.2,0.6c-0.7,2.3-0.3,2.9,2.1,2.9c0.3-0.1,0.4,0,0.3,0.3c-0.2,0.1-0.4,0.1-0.6,0.2c-2.4,0.5-3.1,0.1-3.5-2.3
		c-1.1,0.4-2.1,0.9-3.2,1.3c-1.3,0.4-1.9-0.1-1.8-1.5c0.1-0.8,0.3-1.6,0.4-2.4c0.1-0.7-0.2-0.9-0.8-0.5c-2.4,1.7-5.2,2.8-7.9,4
		c-0.5,0.2-0.6,0.6-0.8,1c-1.4,2.4-2.8,4.7-4.7,6.7c-0.4,0.1-0.9,0.2-1-0.4c0.4-1.4,1.6-2.5,2.2-3.8c0.2-0.5,0.6-0.9,0.7-1.6
		c-2.5,1.3-4.9,2.6-7.1,4.1c-1.3,0.9-2.6,1.9-3.7,3.1c-0.3,0.3-0.6,0.6-0.8,0.9c-0.3,0.6-0.8,1.2-0.3,1.9c0.5,0.7,1.2,0.6,2,0.4
		c0.8-0.1,1.5-0.6,2.4-0.5C222.5,41.7,222.6,41.8,222.5,42.1z"/>
	<path class="st0" d="M257.1,27.9c1.3-0.9,2.9-1.4,3.6-3c0.1-0.2,0.4-0.4,0.6-0.5c0.5-0.3,1.2-0.8,1.6-0.3c0.4,0.5-0.5,0.7-0.8,1
		c-0.5,0.6-0.6,1.2-0.3,1.9c0.5,1.4,1.5,2.5,1.8,4c0.1,0.6,0.7,0.2,1,0.1c3.3-0.9,6.2-2.6,8.9-4.7c0.4-0.3,0.7-0.6,1.1-0.8
		c2.2-1.4,3.7-3.4,4.5-5.9c-1.4,0.1-2.8,0.2-4.1,0.3c1-0.8,2-0.9,3.1-1c1.2-0.1,2.1-0.5,2.7-1.7c0.5-1,1.3-1.8,1.9-2.7
		c0.2-0.3,0.4-0.6,0.7-0.8c0.4-0.3,1-0.6,1.3-0.4c0.4,0.3,0.3,1,0,1.5c-0.7,1.1-1.3,2.2-2,3.2c2.1,0,4.2,0,6.3,0
		c0.4,0,1.2-0.3,1.2,0.5c0,0.6-0.8,0.6-1.3,0.6c-1.8-0.2-3.6,0.1-5.4,0.1c-1.3,0-2.1,0.4-2.8,1.5c-1.7,2.7-3,5.6-3.7,8.8
		c-0.5,2.3,0.3,3,2.6,2.4c3.9-1,7.1-3.3,10.5-5.3c0.3-0.2,0.6-0.4,0.9-0.5c0.3-0.1,0.6-0.1,0.8-0.2c0.2,0.3,0,0.5-0.2,0.6
		c-3.9,2.4-7.8,4.8-12.3,6.1c-3.6,1-4.8-0.1-4.1-3.8c0.2-1.1,0.6-2.2,0.9-3.6c-1,0.7-1.8,1.2-2.6,1.8c-2.9,2.1-5.9,4-9.5,4.9
		c-0.5,0.1-0.6,0.3-0.8,0.8c-0.5,1.2-1.9,1.9-3.2,1.8c-0.6-0.1-1-0.4-1.2-1c-0.2-0.7,0.4-0.8,0.8-1.1c0.3-0.1,0.6-0.3,0.9-0.3
		c1.5-0.1,1.5-0.8,0.8-1.8c-0.3-0.5-0.6-1.1-0.9-1.6c-0.3-0.5-0.6-1.1-0.8-1.6c-0.9,0.4-1.7,0.8-2.5,1.3
		C257.1,28.3,257.1,28.1,257.1,27.9z"/>
	<path class="st0" d="M195.3,28.9c-2,0.8-4,1.3-6.2,0.7c-0.6-0.2-0.8,0.1-1,0.5c-0.6,1.1-1.3,2.3-2.8,1.8c-1.3-0.5-0.8-1.9-0.8-3
		c0-0.4,0.1-0.9,0.2-1.5c-1.4,0.8-2.8,1.6-4.1,2.3c-2.1,1.2-4.3,2.2-6.6,2.8c-3.4,0.9-4.6-0.2-3.9-3.6c0.2-1.2,0.6-2.5,1-4
		c-1.8,1.2-3.4,2.3-5.2,3.1c-0.1,0-0.2-0.1-0.3-0.2c1.5-1,3-2,4.5-3c1.8-1.2,2.7-3.1,3.6-5.2c-1.5,0.1-2.8,0.2-4.3,0.3
		c0.4-0.8,1.1-0.8,1.7-0.8c2.4,0,4-1,5.1-3.2c0.4-0.8,1.1-1.5,1.8-2.2c0.3-0.3,0.7-0.6,1.1-0.4c0.4,0.3,0.3,0.8,0.1,1.2
		c-0.4,0.8-0.9,1.5-1.3,2.2c-0.3,0.4-0.6,0.9-0.8,1.3c2.2,0,4.3,0,6.4,0c0.4,0,1.1-0.2,1.1,0.4c0,0.6-0.6,0.7-1.1,0.6
		c-2.1-0.2-4.1,0.1-6.2,0.1c-0.8,0-1.3,0.3-1.8,1c-1.9,2.8-3.3,5.9-4,9.2c-0.5,2.3,0.3,3,2.6,2.5c2.7-0.7,5.1-2.1,7.6-3.4
		c2.2-1.2,4.2-2.6,5.9-4.5c0.4-0.5,1.3-1.4,1.9,0.1c0.2,0.5-0.4,0.7-0.5,1.1c0,0.1,0,0.3,0,0.3c0.5,0,0.5,0,0.4,0.7
		c-0.3,2.2,0.5,3,2.9,2.9c0.9,0,1.8-0.5,2.7-0.6C195.2,28.5,195.3,28.6,195.3,28.9z"/>
	<path class="st0" d="M76.2,14.8c-2.2,2.1-4.3,4.3-4.2,7.6c0,0.7-0.5,1.1-1,1c-0.6,0-0.4-0.7-0.4-1.1c0-1,0.2-2,0.7-2.8
		c1.3-2.5,3.1-4.5,5.2-6.2c0.4-0.3,0.8-0.7,1.3-0.4c0.5,0.3,0.3,0.9,0.2,1.3c-0.2,0.9-0.4,1.9-0.6,2.6c0.8-0.7,1.8-1.5,2.7-2.3
		c1.1-1,2.2-1.9,3.6-2.2c1.3-0.3,2,0.1,2.3,1.4c0.4,1.6,0.1,3.1-0.8,4.5c-1.9,3.1-4.7,5-8.2,5.9c-0.1,0-0.3,0.1-0.4,0.1
		c-1.7-0.6-1.9,0.8-2.4,1.9c-1,2.2-2,4.3-3,6.5c-0.1,0.2-0.2,0.5-0.4,0.7c-0.3,0.4-0.7,0.7-1.1,0.5c-0.5-0.2-0.2-0.7-0.1-1
		c1-2.4,1.9-4.8,2.9-7.2C74,21.8,75.4,18.4,76.2,14.8z"/>
	<path class="st0" d="M145.6,31c-0.3,0.1-0.5,0.2-0.8,0.2c-2.3,0.5-3,0-3.4-2.3c-1,0.4-1.9,0.9-3,1.2c-1.6,0.5-2.2,0-2-1.7
		c0.1-0.6,0.2-1.1,0.3-1.7c0.1-0.3,0.3-0.8-0.1-1c-0.4-0.3-0.8,0.1-1.1,0.3c-2.3,1.7-4.9,3-7.5,4.1c-1.2,0.5-2.4,0.8-3.6,0.8
		c-2.1,0-2.7-0.6-2.6-2.7c0-0.3,0-0.6,0-1c-0.9,0.6-1.7,1.2-2.5,1.6c-1.6,0.8-2.3,0.6-3.2-1c0-0.1-0.3,0-0.4,0
		c-0.3,0.1-0.3,0-0.3-0.3c1.9-1.3,3.9-2.5,6.3-2.6c0.9,0,1-0.8,1.2-1.4c1-3,2.1-6,3.6-8.8c0.3-0.7,0.8-1.7,1.6-1.3
		c0.7,0.4,0.2,1.4-0.1,2c-1.6,3.5-3.6,6.9-4.4,10.8c-0.2,1.2-0.8,2.4,0.3,3.4c1.1,1,2.4,0.5,3.7,0.1c2.4-0.8,4.6-2.1,6.7-3.6
		c0.8-0.5,1.6-1,2.5-1.3c1.1-0.3,1.7,0.2,1.5,1.3c-0.1,0.6-0.3,1.2-0.4,1.8c-0.2,1.2,0,1.5,1.1,1.1c1.2-0.4,2.7-0.6,2.9-2.4
		c0.1-0.5,0.7-0.8,1.1-0.7c0.6,0.1,0.2,0.7,0.2,1.1c0,0.2-0.1,0.4-0.2,0.6c-0.7,2.3-0.3,2.9,2.1,2.9C145.6,30.6,145.7,30.8,145.6,31
		z"/>
	<path class="st1" d="M197.2,27.6c1.1-0.7,2.2-1.2,2.9-2.5c0.5-1,1.6-1.2,2.8-1.2c0,0.3,0,0.4,0,0.4c-1.7,1.6-1.7,1.8-0.6,3.9
		c0.3,0.6,0.8,1.2,0.9,1.9c0.3,1.3,1,1.1,1.9,0.8c2.8-1,5.3-2.5,7.7-4.3c0.6-0.4,1.1-0.8,1.9-0.8c-0.2,0.7-0.7,0.8-1.1,1.1
		c-2.9,2-5.8,3.9-9.3,4.7c-0.3,0.1-0.6,0.2-0.8,0.6c-0.6,1.4-2,2.1-3.4,2c-0.7-0.1-1.1-0.4-1.2-1c-0.1-0.7,0.4-0.8,0.9-1
		c0.1,0,0.2-0.1,0.2-0.1c2.1-0.8,2.1-0.8,0.9-2.8c-0.1-0.2-0.2-0.3-0.3-0.5c-0.4-0.6-0.6-1.6-1.2-1.8c-0.4-0.2-1.3,0.5-1.9,0.8
		C197.2,28,197.2,27.8,197.2,27.6z"/>
	<path class="st2" d="M38.5,52.1c-0.2,0-0.4,0-0.5,0c-1.5,0.2-3.1,0.2-4.6,0l0,0c-1-0.4-2.2-0.3-3.2-0.5l0,0c-0.4-0.3-0.9,0-1.4-0.3
		c-3-0.8-5.7-2.1-8.2-4c-1.6-1.2-3-2.6-4.6-3.9c-0.9-0.8-1.5-1.8-2.1-2.9c-1.8-3.2-3.1-6.6-3.5-10.1c-0.3-2.1-0.9-4.4-0.1-6.6
		c0.6,0.5,0.5,1.3,0.7,2c0,0.1,0,0.2,0.1,0.4c0.1,0.9-0.3,1.8,0.2,2.7c0,0.1,0,0.2,0.1,0.4c0,0.6,0.2,1.1,0.2,1.7
		c1.1,6.3,3.9,11.7,9.4,15.3c1.2,1.4,3,1.9,4.5,2.7c0.5,0.4,1,0.7,1.6,0.8c0.1,0,0.2,0.1,0.4,0.1c1.7,0.8,3.5,0.9,5.3,1.1
		c0.2,0,0.4,0,0.6,0.1c2.4,0.2,4.9,0.5,7.3-0.4c0.1-0.1,0.3-0.1,0.4-0.2c0.6-0.2,1.1-0.3,1.7-0.5c0.1,0,0.2-0.1,0.4-0.1
		c0.8-0.1,1.6,0,2.3-0.5c0.2-0.1,0.3-0.2,0.5-0.2c0.3-0.1,0.5,0,0.8,0.1c0.2,0.3,0,0.5-0.2,0.6c-0.2,0.1-0.4,0.2-0.5,0.3
		c-1.1,0.5-2.4,0.4-3.5,0.8c-0.8,0.3-1.6,0.5-2.4,0.8C39.5,52.1,38.9,51.7,38.5,52.1z"/>
	<path class="st1" d="M101.1,27.6c1.8-0.8,3.2-2.2,4.6-3.6c0.5-0.5,1.3-1.4,1.9,0.1c0.2,0.5-0.4,0.7-0.5,1.1c0,0.1,0,0.3,0,0.3
		c0.5,0,0.5,0,0.4,0.7c-0.3,2.2,0.5,3,2.8,2.9c1,0,1.8-0.4,2.7-0.6c0.3-0.1,0.4,0,0.3,0.3c-2,0.8-4,1.3-6.1,0.7
		c-0.6-0.2-0.8,0-1,0.5c-0.6,1.1-1.3,2.3-2.7,1.8c-1.3-0.5-0.9-1.9-0.9-2.9c0.1-1.6,0.1-1.6-1.3-1.1C101.2,28,101.1,27.9,101.1,27.6
		z"/>
	<path class="st3" d="M46.4,49.9c0.1-0.2,0.2-0.4,0.3-0.5c0-0.7,0.7-0.8,1.1-1.1c0.4-0.3,0.8-0.5,1.1-0.9c0.7-0.6,1.4-1.2,2.3-1.7
		c1.2-0.3,1.6-1.3,2.2-2.3c0-0.1,0.1-0.2,0.2-0.3c0.4-0.5,0.9-1,1.4-1.5c0.6-0.5,0.9-1.1,1.5-1.6c1.5-1.7,2.4-3.7,3.1-5.7
		c0.5-1.5,1.3-2.5,2.3-3.5c0.9-0.9,2-1.7,2-3.2c0-0.5,0.2-0.8,0.5-1.2c0.4-0.4,0.6-1,0.9-1.5c0.4-0.4,0.6-0.8,0.6-1.4
		c0-0.2,0-0.5,0.1-0.7c0.1-0.3,0.2-0.6,0.3-0.8c0.1-0.1,0.1-0.2,0.2-0.3c0.4-1.7,0.3-2-1.1-2.6c-0.1,0-0.2-0.1-0.3-0.1
		c-0.3-0.1-0.6-0.2-0.8-0.5c2.3-0.7,3.9,0.8,3.2,3.3c-1.2,3.8-2.4,7.6-5.6,10.4c-1.3,1.1-1.5,2.6-2.1,4c-2.5,5.7-6.5,10.1-11.9,13.2
		C47.3,49.5,47,49.9,46.4,49.9z"/>
	<path class="st4" d="M64.2,18.4c0.3,0,0.7-0.1,0.9,0.3c0.1,0.2,0.2,0.4,0.2,0.7c0,0.2-0.1,0.5-0.2,0.7c0,0.1-0.1,0.2-0.1,0.3
		c-0.1,0.3,0,0.7-0.1,1c-0.3,0.4-0.6,0.8-0.7,1.2c-1,2.5-2,4.9-4.1,6.8c-0.8,0.8-1.7,1.4-2.7,2c-0.4,0.1-0.8,0.1-1.1,0.3
		c-1.4,0.3-2.9,0.5-4.4,0.1c-0.6-0.1-1.1,0-1.4,0.5c-0.8,0-1-0.5-1-1.2c0.9-0.5,1.8-0.2,2.8-0.3c1,0,2,0,2.9-0.1c0.2,0,0,0,0.1,0
		c0.1,0,0.1-0.1,0-0.2c0-0.1,0-0.2,0.1-0.3c1.7-0.4,3.5-0.7,4.5-2.5c-1-0.1-2,0-2.9-0.6c0-0.2,0.1-0.4,0.3-0.5
		c0.5-0.2,1-0.1,1.4-0.2c2.4,0,2.9-0.4,3.5-2.9c0-0.2,0-0.4,0.1-0.6c0.6-0.9,1.2-1.9,1.4-3.1c-1.9,0.5-3.6,1-5.4,1.4
		c-0.3-0.1-0.5,0.1-0.8,0.2c-1.3,0.2-2.3,1.3-3.7,1.2c-0.2-0.1-0.3-0.2-0.2-0.5c2.8-1.6,5.9-2.2,8.9-3.1
		C62.9,18.9,63.5,18.6,64.2,18.4z"/>
	<path class="st5" d="M12.9,14.4c0.3-1.5,0.7-2.9,2-3.8c0.3-0.2,0.5-0.6,0.7-1c0.5-1.3,1.3-2.4,2.7-2.9c0.7-0.3,1-1,1.6-1.4
		c1.5-0.9,2.8-2,4.3-2.6c1.7-0.7,3.6-0.7,5.3-1.3c1.6-0.6,3.3-0.7,4.9-0.8c1.1-0.1,2.3,0,3.3,0.5c-0.9,0.6-1.9,0.5-2.9,0.4
		c-1.5-0.1-3,0-4.3,0.6c-0.9,0.6-2.1,0.5-3.1,1c-0.2,0.1-0.3,0.2-0.5,0.3c-0.1,0-0.2,0-0.4,0c-1.4,0.4-3,0.5-3.9,1.9
		C22.4,5.8,21.9,6,21.4,6c-1.7,0.4-2.9,1.5-4,2.8c-1.4,1.6-2.6,3.3-3.7,5.1C13.5,14.1,13.4,14.5,12.9,14.4z"/>
	<path class="st6" d="M154.2,41.6c0-1.2,0-2.4,0-3.6c0-0.3,0-0.7,0.5-0.7c0.5,0,0.4,0.4,0.4,0.7c0,0.4,0,0.9,0,1.3
		c0.1,0.5-0.3,1.4,0.3,1.6c0.7,0.2,1.6,0.1,2.4,0c0.4,0,0.3-0.5,0.3-0.8c0-0.8,0-1.5,0-2.3c0-0.3,0-0.6,0.4-0.6
		c0.4,0,0.5,0.2,0.5,0.6c0,2.6,0,5.1,0,7.7c0,0.4-0.1,0.6-0.5,0.6c-0.4,0-0.4-0.3-0.4-0.6c0-0.9,0-1.7,0-2.6c0.1-0.8-0.2-1.1-1-1
		c-0.4,0-0.8,0-1.2,0c-0.7-0.1-0.9,0.2-0.8,0.9c0,0.8,0,1.5,0,2.3c0,0.3,0.3,0.9-0.4,0.9c-0.7,0-0.5-0.5-0.5-0.9
		C154.2,44,154.2,42.8,154.2,41.6z"/>
	<path class="st7" d="M170.7,41.7c0-1.2,0-2.3,0-3.5c0-0.7,0.3-1,0.9-1c1,0,2,0,2.6,1c0.5,0.9,0.5,1.9-0.2,2.7
		c-0.3,0.4-0.2,0.5,0.1,0.9c1,1,1,2.2,0.3,3.3c-0.7,1.2-1.9,1.1-3,1.1c-0.6,0-0.7-0.3-0.7-0.9C170.7,44.2,170.7,43,170.7,41.7z"/>
	<path class="st7" d="M143.1,41.7c0-0.9-0.1-1.8,0-2.7c0.1-0.6-0.4-1.4,0.5-1.7c1.1-0.4,2.5,0.1,3,0.9c0.5,0.8,0.5,1.8-0.1,2.5
		c-0.4,0.5-0.4,0.7,0,1.2c0.9,1,0.9,2.1,0.2,3.2c-0.7,1.2-2,1.1-3.1,1c-0.6,0-0.6-0.5-0.6-0.9C143.1,44.1,143.1,42.9,143.1,41.7z"/>
	<path class="st8" d="M186.9,46.1c-0.6,0.1-0.6-0.3-0.6-0.8c0-2.4,0-4.8,0-7.3c0-0.3-0.1-0.7,0.3-0.8c0.5-0.1,0.7,0.2,0.9,0.6
		c0.9,1.9,1.8,3.9,2.9,6.1c0-2.2,0-4.1,0-5.9c0-0.3-0.1-0.8,0.4-0.8c0.6,0,0.4,0.5,0.4,0.8c0,2.4,0,4.8,0,7.1c0,0.3,0.2,0.8-0.4,0.9
		c-0.5,0.1-0.7-0.3-0.9-0.6c-0.8-1.9-1.7-3.8-2.6-5.8c-0.7,0-0.3,0.6-0.4,0.8C187,42.4,187.2,44.3,186.9,46.1z"/>
	<path class="st8" d="M148.6,29.5c2.2-1.2,4.4-2.2,6.4-3.7c0.9-0.7,1.9-0.9,3-0.9c0.4,0,0.7,0.1,0.8,0.6c0.1,0.5-0.3,0.8-0.7,0.9
		c-0.3,0.1-0.8,0.5-1-0.2c-0.2-0.8-0.7-0.3-1-0.2c-1.2,0.4-1.8,2.1-1.4,3.4c0.4,1.3,1.3,1.8,2.7,1.5c1-0.2,1.9-0.5,2.9-0.7
		c0.3-0.1,0.3,0,0.3,0.3c-1.6,0.6-3.2,1.2-4.9,1.2c-1.9,0.1-2.9-0.8-2.9-2.7c0-1.1-0.4-1.1-1.1-0.7c-0.9,0.5-1.9,0.9-2.9,1.4
		C148.6,29.9,148.6,29.7,148.6,29.5z"/>
	<path class="st4" d="M180.5,46.2c-0.7,0-0.6-0.3-0.5-0.6c0.6-2.5,1.3-5,1.9-7.5c0.1-0.3,0.2-0.7,0.7-0.7c0.5,0,0.6,0.3,0.7,0.7
		c0.6,2.5,1.3,5,1.9,7.5c0.1,0.2,0.3,0.5-0.2,0.6c-0.3,0.1-0.6,0-0.7-0.4c-0.1-0.3-0.2-0.7-0.3-1c-0.1-0.8-0.3-1.3-1.4-1.3
		c-1.1,0-1.3,0.5-1.5,1.4C181,45.3,181.1,46,180.5,46.2z"/>
	<path class="st4" d="M198.2,46.2c-0.6,0-0.5-0.3-0.4-0.7c0.6-2.5,1.3-5,1.9-7.5c0.1-0.3,0.2-0.7,0.7-0.7c0.5,0,0.6,0.3,0.7,0.7
		c0.6,2.5,1.3,5,1.9,7.5c0.1,0.2,0.3,0.5-0.2,0.6c-0.3,0.1-0.6,0-0.7-0.4c-0.1-0.3-0.2-0.7-0.3-1c-0.1-0.8-0.3-1.3-1.4-1.3
		c-1.1,0-1.3,0.5-1.5,1.4C198.8,45.3,199,46,198.2,46.2z"/>
	<path class="st4" d="M153.1,45.7c0.1,0.3,0,0.4-0.2,0.4c-0.3,0-0.6,0-0.7-0.3c-0.1-0.4-0.3-0.8-0.3-1.2c-0.1-0.8-0.3-1.3-1.4-1.3
		c-1.1,0-1.4,0.5-1.5,1.4c0,0.3-0.1,0.5-0.2,0.8c-0.1,0.4-0.3,0.7-0.7,0.6c-0.5-0.1-0.2-0.5-0.2-0.8c0.6-2.4,1.2-4.9,1.8-7.3
		c0.1-0.4,0.2-0.8,0.7-0.8c0.6,0,0.6,0.4,0.7,0.8c0.6,2.5,1.2,4.9,1.9,7.4C153.1,45.6,153.1,45.7,153.1,45.7z"/>
	<path class="st4" d="M167.7,45.7c0.1,0.2,0.1,0.4-0.2,0.5c-0.3,0-0.6,0-0.7-0.3c-0.1-0.4-0.3-0.8-0.3-1.2c-0.1-1-0.5-1.3-1.6-1.3
		c-0.8,0-1.1,0.3-1.3,1c-0.2,0.6,0.1,1.9-1,1.6c-0.7-0.2,0-1.2,0.2-1.9c0.4-2,0.9-3.9,1.4-5.9c0.1-0.5,0.1-1,0.8-1
		c0.7,0,0.6,0.6,0.7,1C166.5,40.7,167.1,43.2,167.7,45.7z"/>
	<path class="st9" d="M12.9,14.4c1.4-1.9,2.7-3.8,4.1-5.7c1-1.3,2.5-2,3.7-3c0.2-0.2,0.4-0.1,0.6,0.1c-0.1,0.3-0.3,0.5-0.5,0.7
		c-1.8,1.5-3.9,2.8-4.8,5.1c-0.1,0.1-0.1,0.2-0.2,0.3c-0.7,0.7-1.3,1.3-1.6,2.3c-1.6,3.2-2.3,6.7-2.8,10.2c-0.1,0.6-0.1,1.2-0.6,1.6
		c-0.4-0.7-0.3-1.4-0.5-2.2c0.4-2,0.7-4,1.2-6C11.8,16.6,11.9,15.3,12.9,14.4z"/>
	<path class="st10" d="M193.1,41.8c0,0.6,0,1.3,0.3,1.9c0.5,1.3,1.4,1.8,2.7,1.6c0.4-0.1,0.8-0.4,0.9,0.3c0.1,0.6-0.4,0.6-0.8,0.7
		c-1.4,0.4-2.6-0.1-3.4-1.3c-1.1-1.7-1-4.7,0.2-6.3c0.8-1.2,2.2-1.7,3.4-1.3c0.3,0.1,0.7,0.2,0.5,0.7c-0.1,0.3-0.1,0.4-0.5,0.4
		C193.9,38.2,193.1,39.1,193.1,41.8z"/>
	<path class="st11" d="M30.4,2c1.2-0.8,2.6-0.8,3.9-0.8c1.1,0.1,2.3-0.1,3.4-0.1C39.3,1,40.7,1.4,42,2c0.6,0.2,1.3,0.4,1.9,0.5
		c1,0.5,1.9,1.2,2.9,1.8c0.2,0.2,0.6,0.3,0.3,0.7c-0.7,0.5-1.3,1.1-2.2,0.4c0.3-0.7,0-1.1-0.6-1.3c-0.7-0.3-1.4-0.6-2.1-0.7
		c-0.3-0.1-0.6-0.2-0.9-0.3c-1.3-0.5-2.8-0.7-4.2-0.8c-0.1,0-0.3,0-0.4-0.1C35.5,2,34.2,2,33,2.2c-0.8,0.1-1.5,0.5-2.3,0.5
		C30.3,2.6,30.4,2.3,30.4,2z"/>
	<path class="st12" d="M48.3,5.2c0.7,0.1,1.3,0.5,1.6,1.1c1.1,2.2,2.7,4.3,3.4,6.7c1,3.3,0,6.4-1.3,9.4c-0.2,0.4-0.7,0.7-0.3,1.2
		c0.1,0.6-0.4,0.7-0.8,0.9c-0.9-0.6,0-1.2,0-1.8c0.2-0.6,0.5-1.1,0.7-1.7c1.7-3.9,1.7-7.6-0.7-11.2c-0.7-1.4-1.3-2.9-2.7-3.9
		c-0.1-0.1-0.1-0.2-0.1-0.4c0-0.1,0-0.1,0-0.2C48.2,5.3,48.2,5.2,48.3,5.2z"/>
	<path class="st7" d="M94.9,30.5c-1.2,0.3-2.4,0.9-3.4-0.1c-1-1-0.1-2.2,0.2-3.3c0.2-0.7,0.4-1.3-0.3-1.8c0-0.6,0.4-0.6,0.9-0.5
		c1.2,0.4,1.5,1.2,1,2.4c-0.2,0.4-0.3,0.8-0.4,1.3c-0.4,1.6-0.3,1.8,1.4,1.7C94.6,30.2,94.9,30,94.9,30.5z"/>
	<path class="st7" d="M175.8,41.7c0-1.2,0-2.4,0-3.6c0-0.3,0-0.7,0.4-0.7c0.6,0,0.5,0.4,0.5,0.7c0,1.9,0.1,3.9,0,5.8
		c-0.1,1.1,0.4,1.4,1.4,1.3c0.2,0,0.4,0,0.5,0c0.4,0,0.9-0.1,0.9,0.6c0,0.7-0.6,0.4-0.9,0.5c-2.7,0.1-2.7,0.1-2.7-2.6
		C175.8,42.9,175.8,42.3,175.8,41.7z"/>
	<path class="st13" d="M92.3,24.8c-0.3,0.2-0.6,0.3-0.9,0.5c-0.5-0.3-0.9-0.1-1.3,0.2c-0.5,0.5-1.1,0.9-2.3,0.8
		c1.7-0.7,2.3-1.9,2.6-3.2c0-0.2,0.2-0.4,0.4-0.6c0.4-0.5,1-1.2,1.6-0.8c0.5,0.4,0.1,1.2-0.3,1.7C91.6,24,91.8,24.4,92.3,24.8z"/>
	<path class="st0" d="M161.3,41.8c0,1.2,0,2.4,0,3.6c0,0.3,0.1,0.8-0.5,0.7c-0.5,0-0.4-0.4-0.4-0.7c0-2.5,0-4.9,0-7.4
		c0-0.3-0.1-0.8,0.5-0.8c0.6,0,0.4,0.5,0.4,0.8C161.3,39.4,161.3,40.6,161.3,41.8z"/>
	<path class="st14" d="M222.5,42.1c-0.1-0.1-0.2-0.2-0.3-0.3c0.8-1.3,2.3-2,3.3-3.1c0.5-0.5,0.8-1.4,1.7-1.5
		c0.2,0.3,0.6,0.1,0.8,0.3C226.5,39.4,224.8,41.1,222.5,42.1z"/>
	<path class="st12" d="M47.2,5c-1.1-0.8-2.3-1.4-3.2-2.4c1.8,0.3,3,1.6,4.4,2.7c0,0,0,0,0,0C47.8,5.5,47.4,5.5,47.2,5z"/>
	<path class="st15" d="M50.9,24.3c0.3-0.3,0.5-0.5,0.8-0.8c0.5-0.5,1.1-0.9,1.6-1.4c0.1,0.1,0.2,0.2,0.3,0.3
		c0.1,0.9-0.8,1.1-1.1,1.8c-0.3,0.3-0.6,0.6-0.9,0.8c-0.2,0.1-0.4,0.2-0.7,0.2c-0.2,0-0.3-0.1-0.4-0.3
		C50.5,24.6,50.7,24.4,50.9,24.3z"/>
	<path class="st16" d="M186.9,46.1c0-2.3,0-4.6,0-7c0.4,0.1,0.5,0.3,0.5,0.6c-0.5,1.7-0.1,3.4-0.2,5.1
		C187.2,45.3,187.5,45.8,186.9,46.1z"/>
	<path class="st17" d="M101.1,27.6c0.1,0.1,0.2,0.2,0.3,0.3c-1.2,0.8-2.5,1.2-3.8,1.6c-0.3,0.1-0.3,0-0.3-0.3
		C98.6,28.7,99.9,28.2,101.1,27.6z"/>
	<path class="st18" d="M257.1,27.9c0.1,0.1,0.2,0.2,0.3,0.3c-1,0.7-2.1,1.2-3.2,1.6c-0.3,0.1-0.4,0-0.3-0.3
		C254.9,28.9,256,28.4,257.1,27.9z"/>
	<path class="st19" d="M253.8,29.5c0.1,0.1,0.2,0.2,0.3,0.3c-1,0.6-2.1,1-3.3,1.3c-0.1-0.1-0.2-0.2-0.3-0.3
		C251.6,30.3,252.7,29.9,253.8,29.5z"/>
	<path class="st19" d="M148.6,29.5c0.1,0.1,0.2,0.2,0.3,0.3c-1,0.7-2.1,1-3.3,1.3c-0.1-0.1-0.2-0.2-0.3-0.3
		C146.4,30.3,147.5,29.9,148.6,29.5z"/>
	<path class="st20" d="M107.6,26.3c0-0.3-0.1-0.6-0.1-1.3c-0.1,0.7-0.2,0.9-0.2,1.3c-0.6-0.9-0.5-1.6,0.4-2.2
		C108,24.8,107.9,25.5,107.6,26.3z"/>
	<path class="st21" d="M189.4,26.3c0-0.3-0.1-0.6-0.1-1.3c-0.1,0.7-0.2,1-0.2,1.3c-0.6-0.9-0.5-1.6,0.4-2.2
		C189.8,24.8,189.7,25.5,189.4,26.3z"/>
	<path class="st17" d="M165.1,28.4c-0.8,0.6-1.7,1-2.7,1.3c-0.3,0.1-0.3,0-0.3-0.3c0.9-0.4,1.8-0.9,2.7-1.3
		C165,28.2,165.1,28.2,165.1,28.4z"/>
	<path class="st3" d="M33.4,52.1c1.5,0,3.1,0,4.6,0C36.5,52.5,34.9,52.5,33.4,52.1z"/>
	<path class="st22" d="M197.2,27.6c0.1,0.1,0.2,0.2,0.3,0.3c-0.7,0.5-1.4,0.8-2.2,1c-0.1-0.1-0.2-0.2-0.3-0.3
		C195.7,28.3,196.4,27.9,197.2,27.6z"/>
	<path class="st22" d="M113.5,28.9c-0.1-0.1-0.2-0.2-0.3-0.3c0.8-0.3,1.5-0.7,2.3-1c0.1,0.1,0.2,0.2,0.3,0.3
		C115.1,28.4,114.3,28.6,113.5,28.9z"/>
	<path class="st3" d="M42.3,51c1.1-0.6,2.3-0.5,3.5-0.8C44.8,51,43.5,50.8,42.3,51z"/>
	<path class="st3" d="M30.2,51.5c1.1,0,2.2-0.1,3.2,0.5C32.3,52,31.2,51.9,30.2,51.5z"/>
	<path class="st23" d="M162.1,29.5c0.1,0.1,0.2,0.2,0.3,0.3c-0.5,0.4-1.1,0.6-1.7,0.7c-0.1-0.1-0.2-0.2-0.3-0.3
		C160.9,29.8,161.5,29.7,162.1,29.5z"/>
	<path class="st24" d="M94.9,30.5c-0.2-0.1-0.4-0.2-0.6-0.2c0.6-0.2,1.1-0.3,1.7-0.5C95.8,30.4,95.3,30.4,94.9,30.5z"/>
	<path class="st25" d="M97.4,29.2c0.1,0.1,0.2,0.2,0.3,0.3c-0.4,0.3-0.9,0.5-1.5,0.5C96.5,29.3,97,29.4,97.4,29.2z"/>
	<path class="st0" d="M165.1,28.4c-0.1-0.1-0.2-0.2-0.3-0.2c0.3-0.1,0.5-0.2,0.8-0.3c0.1,0.1,0.2,0.1,0.3,0.2
		C165.6,28.2,165.4,28.3,165.1,28.4z"/>
	<path class="st3" d="M28.8,51.3c0.5,0.1,1-0.2,1.4,0.3C29.7,51.5,29.2,51.7,28.8,51.3z"/>
	<path class="st3" d="M38.5,52.1c0.4-0.4,0.9-0.2,1.4-0.3C39.5,52.2,39,52,38.5,52.1z"/>
	<path class="st26" d="M261.3,33.5c-0.4,0-1,0-0.9-0.4c0.1-0.8,1-0.6,1.6-0.9c0.2-0.1,0.5,0,0.5,0.3
		C262.4,33.2,261.9,33.4,261.3,33.5z"/>
	<path class="st27" d="M186.7,26.1c0.7,1.5,1.3,3,0,4.4c-0.2,0.2-0.3,0.5-0.6,0.5c-0.4-0.1-0.3-0.5-0.4-0.8
		C185.7,28.8,186.2,27.5,186.7,26.1z"/>
	<path class="st28" d="M75.5,23.2c1.6-3.7,3.8-6.6,6.7-9.2c0.5-0.4,1-1,1.8-0.7c0.8,0.3,0.8,1.2,0.7,1.9c-0.2,2.3-1.4,4-3.2,5.4
		C79.8,21.9,77.8,22.6,75.5,23.2z"/>
	<path class="st29" d="M121.7,25.8c-0.8,1.1-1.5,1.9-2.6,2.2c-0.3,0.1-0.6,0.2-0.9-0.1c-0.3-0.4,0-0.7,0.2-1
		C119.3,26.1,120.3,25.9,121.7,25.8z"/>
	<path class="st30" d="M201.5,32.3c0.4-0.1,0.6,0,0.5,0.3c-0.1,0.6-0.5,1-1.1,0.9c-0.3,0-0.8-0.1-0.7-0.4
		C200.3,32.3,201.1,32.5,201.5,32.3z"/>
	<path class="st31" d="M10.7,26c0.6-4.2,1.1-8.4,3.3-12.1c0.4-0.8,1.1-1.4,1.6-2.2l0,0c0.3-0.2,0.3-0.8,0.9-0.5
		c0.2,0.6-0.2,1-0.5,1.4c-1.2,1.4-1.6,3.2-2.4,4.8c-0.2,0.5-0.4,1-0.4,1.5c-0.2,0.7-0.4,1.5-0.6,2.2c-1.1,3.9-0.7,7.8,0.4,11.6
		c0.3,1.2,0.7,2.4,0.6,3.7c-0.1,0.1-0.2,0.2-0.4,0.2c-0.6,0-0.7-0.5-0.8-0.9c-0.4-1.4-0.9-2.8-1.2-4.2c0-0.8-0.2-1.5-0.3-2.3
		c0-0.1,0-0.2,0-0.2c-0.5-0.9,0.1-1.8-0.3-2.7C10.7,26.1,10.7,26.1,10.7,26z"/>
	<path class="st32" d="M33.1,51.3c-0.2,0-0.4,0-0.5,0c-1.9-0.5-3.9-0.4-5.7-1.3l0,0c-0.6-0.3-1.1-0.5-1.6-0.8
		c-1.6-0.7-3.5-1.1-4.6-2.7c-0.2-0.2-0.5-0.3-0.2-0.6c0.2-0.1,0.4-0.1,0.6,0c1.7,1.5,3.8,2.1,5.7,3.2c1.1,0.5,2.2,0.9,3.4,1
		c0.6,0.2,1.3,0.1,1.9,0.3c3.4,0.8,6.8,0.6,10-0.8c1.1-0.2,2.1-0.5,3.2-0.6c0.1,0,0.3,0.1,0.4,0.2c0.1,0.1,0.1,0.2,0.1,0.4
		c-0.1,0.1-0.2,0.2-0.3,0.3c-0.9,0.3-1.8,0.3-2.7,0.5l-0.1,0l-0.1,0c-0.5,0.2-1.1,0.2-1.6,0.5l0,0C38.4,51.8,35.8,51.4,33.1,51.3z"
		/>
	<path class="st33" d="M20.5,45.9c0.1,0.2,0.2,0.4,0.3,0.6c-2.4-1.1-4.1-3.1-5.6-5.1c-2.3-3.1-3.5-6.8-4.1-10.6
		c0.5-0.1,0.3,0.4,0.5,0.5c0.3,1.8,0.7,3.5,1.6,5.1c0.3,0.2,0.4,0.5,0.6,0.8c0.1,0.1,0.1,0.2,0.2,0.3c0.1,0.3,0.2,0.5,0.4,0.8
		c0.5,0.8,0.8,1.7,1.4,2.4c0.1,0.1,0.1,0.2,0.2,0.3c0.6,0.9,1.4,1.6,2.3,2.2c0.3,0.3,0.6,0.6,0.9,0.9C19.3,44.9,20.4,44.9,20.5,45.9
		z"/>
	<path class="st34" d="M33.1,51.3c2.6,0,5.3,0.2,7.8-0.5c-0.4,0.5-1,0.6-1.6,0.6C37.3,51.6,35.2,51.8,33.1,51.3z"/>
	<path class="st35" d="M26.9,49.9c1.8,0.7,3.9,0.6,5.7,1.3C30.7,51,28.6,51.1,26.9,49.9z"/>
	<path class="st36" d="M45.8,49.4c0-0.1,0-0.2,0-0.3c0.8-1,1.9-1.6,3.2-1.6c-0.5,1-1.7,1.1-2.4,1.9C46.4,49.4,46.1,49.4,45.8,49.4z"
		/>
	<path class="st9" d="M10.8,26.2c0.6,0.9,0.2,1.8,0.3,2.7C10.1,28.1,10.7,27.1,10.8,26.2z"/>
	<path class="st36" d="M42.9,50.2c0.9-0.4,1.8-0.5,2.7-0.5C44.8,50.3,43.8,50.2,42.9,50.2z"/>
	<path class="st9" d="M11.6,31.3c-0.2-0.2-0.4-0.4-0.5-0.5c0.2-0.5-0.4-1.1,0-1.6C11.4,29.9,11.4,30.6,11.6,31.3z"/>
	<path class="st35" d="M25.3,49.1c0.6,0.1,1.2,0.3,1.6,0.8C26.3,49.9,25.7,49.7,25.3,49.1z"/>
	<path class="st34" d="M41,50.7c0.4-0.5,1-0.6,1.6-0.5C42.1,50.6,41.6,50.7,41,50.7z"/>
	<path class="st27" d="M105,26.2c0.7,1.5,1.3,2.9,0,4.3c-0.2,0.2-0.3,0.5-0.6,0.5c-0.4-0.1-0.4-0.5-0.4-0.8
		C104,28.8,104.4,27.5,105,26.2z"/>
	<path class="st37" d="M55,41.8c-0.3,0.6-0.8,1-1.3,1.4c-0.8,0.6-1.3,1.8-2.5,1.9C51.1,45,51,44.8,51,44.6c0-0.2,0.1-0.4,0.2-0.5
		c0.4-0.3,0.7-0.6,0.8-1.1c0.4-0.7,1-1.2,1.7-1.7c1.4-1.4,2.5-3.1,3.3-4.9c0.2-0.4,0.2-1,0.9-1c0.6,0.9,0,1.6-0.3,2.4
		C57,39.2,55.8,40.4,55,41.8z"/>
	<path class="st38" d="M64,27.6c0.5,1.1-0.4,1.9-1,2.4c-2.1,1.8-3.2,4.1-4.1,6.5c-0.5,1.4-1.1,2.9-2.5,3.8c0.1-1,0.8-1.7,1.2-2.6
		c0.7-1.5,1.4-3,1.7-4.6c0.1-0.6,0.5-1.1,1-1.5c1-0.8,1.9-1.6,2.4-2.8C63,28.2,63.2,27.6,64,27.6z"/>
	<path class="st39" d="M64,27.6c-0.4,0.4-0.8,0.8-0.9,1.4c-0.1,0.1-0.2,0.1-0.4,0c-0.1-0.2-0.1-0.4-0.1-0.6c0.8-2,1.9-3.9,2.5-6
		c0.3-0.9,0.3-1.6-0.4-2.3c0.1-0.2,0.2-0.3,0.2-0.5c1.1-0.5,1.4,0.2,1.6,1c0.1,0.5,0.1,1-0.2,1.4c0,0.3,0,0.6-0.3,0.8
		c-0.3,0.4-0.2,0.9-0.4,1.3c-0.1,0.2-0.2,0.4-0.4,0.6c-0.4,0.5-0.5,1.2-0.8,1.8C64.3,26.9,64.1,27.2,64,27.6z"/>
	<path class="st32" d="M59.6,33c-0.3,2.8-2,4.9-3.2,7.3c-0.3,0.6-0.7,1.3-1.4,1.6c-0.4-0.8,0.3-1.1,0.6-1.5c0.9-1,1.4-2.3,2.1-3.4
		c0.3-0.5,0.3-1,0.3-1.5c-0.1-0.5,0.2-0.8,0.4-1.2c0.4-0.4,0.4-1,0.9-1.3C59.4,32.8,59.5,32.9,59.6,33z"/>
	<path class="st40" d="M51.2,45.1c1-0.4,1.3-1.7,2.4-1.9c0,0.1,0,0.2,0,0.2c-0.8,0.9-1.4,1.9-2.4,2.4c-0.7,0.5-1.4,1.1-2.1,1.6
		c-1.1,0.5-2.2,1.1-3.2,1.6c-0.1,0-0.2,0-0.3,0c-0.1-0.6,0.5-0.8,0.9-1c0.7-0.4,1.5-0.8,2.1-1.3c0.2-0.3,0.4-0.6,0.8-0.8
		C50,45.8,50.5,45.2,51.2,45.1z"/>
	<path class="st36" d="M51.2,45.9c0.7-0.9,1.5-1.7,2.4-2.4C53,44.5,52.7,45.7,51.2,45.9z"/>
	<path class="st41" d="M66.3,21.9c-0.1-1,0.4-2.4-1.3-2.4c0-0.3,0-0.5,0-0.8c0.1,0,0.1,0,0.2,0c1.7,1,1.7,1.1,1.3,3.2
		C66.5,21.9,66.4,21.9,66.3,21.9z"/>
	<path class="st38" d="M66.6,21.9c0.3-1.4-0.2-2.5-1.3-3.2C67,19.3,67.3,20,66.6,21.9z"/>
	<path class="st41" d="M64.5,26.5c-0.1-0.8,0.3-1.3,0.8-1.9c0.1,0.1,0.1,0.1,0.1,0.2c0,0.1,0,0.1-0.1,0.1
		C65.3,25.6,65,26.1,64.5,26.5z"/>
	<path class="st38" d="M65.3,24.9c0-0.1,0-0.2,0-0.3c0-0.2,0-0.4,0.3-0.5c0.3-0.1,0-0.7,0.6-0.5C66,24.1,66,24.7,65.3,24.9z"/>
	<path class="st41" d="M66.1,23.5c-0.2,0.2-0.4,0.4-0.6,0.5c0-0.5,0.1-1,0.6-1.3C66.1,23,66.1,23.3,66.1,23.5z"/>
	<path class="st42" d="M56.9,27c1.2,0.1,2.4,0.4,3.8,0.1c-1.3,2.2-3,3.4-5.4,3.2c-0.6,0.2-1.2,0-1.9,0c-0.5-0.1-0.9-0.2-1.4-0.3
		c-0.6-0.3-1.5,0.1-1.9-0.7c0.5-1.7,1.7-2.4,3.3-2.8C54.5,26.9,55.8,26.3,56.9,27z"/>
	<path class="st43" d="M62.3,23.5c0,2.1-1,3.3-3,3.3c-0.7,0-1.4,0-2.1,0c-1.3,0-2.6,0.2-3.9-0.1c-0.5-0.6,0.1-0.8,0.4-1.1
		c1.6-1.3,3.4-2.2,5.6-2.1c0.7,0,1.4,0.1,2.1-0.1C61.8,23.2,62,23.3,62.3,23.5z"/>
	<path class="st44" d="M59.3,23.8c-2.5-0.1-4.5,1.1-6.2,2.8c0,0.1,0,0.1,0,0.2c-1.2,0.6-2.1,1.4-3,2.5c-0.1,0.4-0.3,0.8-0.6,1.1
		c-0.2,0.3-0.5,0.5-0.2,0.9c0.5,0.1,0.4,1,1.1,1c0.2-0.3,0.5-0.4,0.8-0.3c1.6,0.2,3.1-0.1,4.7,0.2c0.2,0.1,0.2,0.2,0.2,0.4
		c-0.3,0.5-0.9,0.4-1.3,0.4c-1.4,0-2.8,0-4.1,0c-0.8,0-1.4-0.4-2.1-0.7c-0.1,0-0.2,0.1-0.3,0.2c-0.2,0.2-0.4,0.4-0.6,0.7
		c-0.5,0.5-0.6,1.4-1.4,1.7c-0.8-0.9,0.1-1.5,0.3-2.3c0.5-0.4,0.5-1,0.5-1.6c0.1-0.2,0.2-0.3,0.4-0.4c0.4,0,0.6-0.2,0.6-0.6
		c0.2-0.5,0.1-1.1,0.4-1.6c0.1-0.1,0.1-0.2,0.2-0.3c0.2-0.1,0.3,0,0.5,0.2c0.8,0.2,0.9-0.7,1.4-1c0.2-0.2,0.5-0.3,0.7-0.5
		c1-1.1,2.2-1.8,3.3-2.7c0.4,0,0.7-0.2,0.9-0.5c1.4-1,2.9-1.5,4.4-2.1c0.4-0.2,0.9-0.4,1.2,0.2c0.3,0.5-0.3,0.8-0.6,1
		c-0.5,0.3-0.9,0.5-1.5,0.6c0,0,0,0.1,0,0.1c0.1,0,0.2,0.1,0.2,0.1C59.4,23.6,59.4,23.7,59.3,23.8z"/>
	<path class="st45" d="M59.3,23.5c-0.4,0-0.7,0-1.2-0.1c1-0.7,2.2-0.9,3-1.7c-0.8-0.2-0.8-0.2-2.8,0.7c-0.9,0.4-1.9,0.9-2.8,1.3
		c-0.1-0.1-0.1-0.2-0.1-0.3c0.1-0.5,0.5-0.8,0.8-1.2c0.1-0.1,0.3-0.3,0.4-0.3c0.5-0.2,0.9-0.7,1.4-0.8c1.7-1.1,3.8-1,5.6-1.8
		c0.3-0.1,0.6,0.1,0.4,0.4c-0.5,1.1-0.5,2.5-1.7,3.2c-0.3,0.4-0.7,0.3-1.1,0.4C60.5,23.5,59.9,23.6,59.3,23.5z"/>
	<path class="st46" d="M57.2,31.3c0.5-0.8,1.4-1,2.1-1.6c1.9-1.7,3.3-3.8,4.1-6.2c0.1-0.4,0.2-0.8,0.6-1c0.9,0.2,0.5,0.9,0.4,1.4
		c-0.4,1.2-0.9,2.3-1.4,3.4c-1,1.9-2.6,3.2-4.1,4.7c-0.2,0.2-0.4,0.3-0.7,0.3C57.6,32,57.3,31.7,57.2,31.3z"/>
	<path class="st47" d="M49.3,31.1c-1.5-0.4,0.2-0.7,0-1.1c0.7-0.4,1.5-0.3,2.3-0.3c0.6,0.1,1.2,0.1,1.7,0.4c0.7,0,1.3,0.1,1.9,0.4
		c0.3,0,0.5,0.1,1,0.1C53.8,31.4,51.6,30.7,49.3,31.1z"/>
	<path class="st48" d="M64.7,20c1,0.3,1.1,0.9,0.9,1.9c-0.7,2.3-1.6,4.4-2.8,6.5c-0.2,0.2-0.3,0.8-0.9,0.5c-0.1-0.7,0.6-1.1,0.8-1.7
		c0.7-1.4,1.3-2.8,1.7-4.3c0.4-0.8,0.6-1.7,0.3-2.6C64.7,20.2,64.7,20.1,64.7,20z"/>
	<path class="st49" d="M56,32.1c-1.9,0-3.7,0-5.6,0c-0.4-1,0.5-0.9,0.9-0.8c1.7,0.4,3.4,0.2,5.1,0C56.6,31.7,56.4,32,56,32.1z"/>
	<path class="st50" d="M56.6,22.2c-0.1,0.1-0.2,0.2-0.3,0.2c-0.9,0.3-1.8,0.7-2.6,1.3c-0.4,0.2-0.7,0.7-1.3,0.3c0.2-0.7,1-1,1.3-1.6
		c1.3-0.4,2.4-1.3,3.8-1.4C57.5,21.8,56.9,21.9,56.6,22.2z"/>
	<path class="st51" d="M56,32.1c0.1-0.3,0.2-0.5,0.3-0.8c0.3-0.2,0.5-0.1,0.8-0.1c0.4,0.1,0.8,0.3,0.8,0.8c0.2,0.4,0,0.6-0.2,0.8
		c-0.2,0.1-0.4,0.3-0.6,0.4c-0.5,0.1-0.9-0.2-1.1-0.6c0-0.1,0-0.3,0-0.4C56.1,32.3,56.1,32.2,56,32.1z"/>
	<path class="st52" d="M64.7,23c-0.6,1.4-1.3,2.9-1.9,4.3c-0.1,0.1-0.2,0.1-0.3,0c0.5-1.2,0.9-2.3,1.4-3.5c0.2-0.4,0.4-0.9,0-1.3
		c0.1-0.5,0.2-1,0.8-1.1C65,21.9,64.9,22.4,64.7,23z"/>
	<path class="st53" d="M53.1,26.7c0-0.1,0-0.1,0-0.2c1.4,0.1,2.8-0.3,4.1,0.2c-0.1,0.1-0.2,0.2-0.3,0.3C55.6,27,54.3,27.2,53.1,26.7
		z"/>
	<path class="st54" d="M64.7,23c0-0.5,0-1.1,0-1.6c-0.1-0.4-0.5-0.7,0-1.1C65.5,21.2,65.2,22.1,64.7,23z"/>
	<path class="st55" d="M56.6,22.2c0.3-0.4,0.6-0.7,0.9-1.1c0.2,0,0.4-0.3,0.6,0.1C57.6,21.7,57.2,22.1,56.6,22.2z"/>
	<path class="st56" d="M55.3,30.5c-0.6-0.1-1.3-0.2-1.9-0.3l0-0.1c0.7-0.1,1.3-0.1,1.9,0.2C55.3,30.3,55.3,30.4,55.3,30.5z"/>
	<path class="st57" d="M61.2,23.3c0.4-0.1,0.7-0.2,1.1-0.2c0,0.1,0,0.3,0,0.4c-0.3,0-0.5,0.1-0.8,0.1C61.2,23.7,61.2,23.6,61.2,23.3
		z"/>
	<path class="st58" d="M30.5,2.5C31.3,2.4,32,1.9,32.9,2c1.4-0.2,2.7-0.2,4.1,0l0,0c0.7,0.5,0.4,0.9-0.2,1.2
		c-0.9,0.4-1.8,0.3-2.7,0.2c-0.4-0.5-0.9-1-1.7-0.6c-0.3,0.2-0.3,0.4-0.2,0.6c-0.3,0.8-1.2,0.3-1.7,0.8c-0.1,0.1-0.2,0.1-0.3,0.2
		c-0.6,0.1-1.2,0.2-1.7,0.6c-0.6,0.3-1.1,0.7-1.7,0.8c-0.3,0-0.5,0-0.7-0.2c-0.2-1,1-0.8,1.3-1.4c-0.4-0.2-1,0.2-1.3-0.3
		c0-0.6,0.5-0.5,0.9-0.5c0.1,0,0.2,0,0.3,0c0.4-0.3,0.9-0.3,1.3-0.5C29,2.8,29.7,2.4,30.5,2.5z"/>
	<path class="st59" d="M26.7,3.3c-0.3,0.2-0.5,0.4-0.8,0.5c-1.7,1-3.1,2.4-5.1,2.8c-0.1-0.1-0.1-0.1-0.1-0.2c0-0.1,0-0.1,0.1-0.1
		C20.8,6,21,5.9,21.3,5.8c0.5-0.1,1-0.2,1.2-0.7c0.8-1.5,2.6-1.3,3.9-2C26.4,3.1,26.6,3.3,26.7,3.3z"/>
	<path class="st60" d="M30.5,2.5c-0.7,0.2-1.4,0.4-2.2,0.5c-0.4,0.2-0.7,0.2-1.1,0c0.9-0.8,2.2-0.5,3.2-1.1
		C30.7,2.2,30.5,2.3,30.5,2.5z"/>
	<path class="st59" d="M27.2,3.1c0.4,0,0.7,0,1.1,0c-0.4,0.4-0.9,0.2-1.3,0.3C27,3.2,27.1,3.2,27.2,3.1z"/>
	<path class="st61" d="M173.8,43.7c0,0.5-0.1,1-0.7,1.4c-1,0.6-1.6,0.3-1.6-0.8c0-0.3-0.1-0.6,0-0.8c0.2-0.5-0.6-1.5,0.7-1.5
		C173.2,42,173.8,42.5,173.8,43.7z"/>
	<path class="st62" d="M171.5,39.7c0.2-0.6-0.4-1.6,0.8-1.5c0.8,0.1,1.3,0.5,1.3,1.4c0,0.8-0.4,1.4-1.4,1.5
		C171,41.1,171.9,40,171.5,39.7z"/>
	<path class="st61" d="M143.9,43.5c0.4-0.5-0.5-1.5,0.7-1.6c1-0.1,1.7,0.6,1.7,1.6c0,1.1-0.5,1.8-1.6,1.7
		C143.4,45.2,144.4,44.1,143.9,43.5z"/>
	<path class="st62" d="M144,39.6c0.2-0.5-0.4-1.4,0.7-1.4c0.9,0,1.5,0.4,1.4,1.4c0,0.8-0.4,1.4-1.4,1.5
		C143.5,41.1,144.3,40.1,144,39.6z"/>
	<path class="st63" d="M182.5,39c0.6,1,0.6,2,0.9,2.9c0.2,0.7-0.3,0.6-0.7,0.6c-0.4,0-1,0.1-0.8-0.6C182,40.9,182.2,40,182.5,39z"/>
	<path class="st63" d="M200.5,39.1c0.2,0.8,0.4,1.5,0.6,2.3c0.1,0.3,0.4,0.7,0,0.9c-0.4,0.2-0.9,0.2-1.3,0c-0.4-0.2-0.1-0.6,0-1
		c0.2-0.7,0.4-1.5,0.5-2.2C200.3,39.2,200.4,39.2,200.5,39.1z"/>
	<path class="st63" d="M150.4,38.8c0.3,1.2,0.6,2.2,0.8,3.1c0.2,0.7-0.4,0.6-0.7,0.6c-0.4,0-1,0.1-0.8-0.6
		C149.9,40.9,150.1,40,150.4,38.8z"/>
	<path class="st63" d="M165.1,39.2c0.2,0.8,0.4,1.5,0.6,2.3c0.1,0.3,0.4,0.7-0.1,0.9c-0.3,0.1-0.8,0.1-1.2,0
		c-0.4-0.2-0.2-0.6-0.1-0.9c0.2-0.8,0.4-1.6,0.6-2.3C165,39.1,165.1,39.2,165.1,39.2z"/>
	<path class="st64" d="M20.7,6.3c0,0.1,0,0.2,0,0.3c0.1,0.2,0.1,0.3,0.1,0.5c-0.4,0.5-1,0.9-1.5,1.2c-0.3,0.2-0.6,0.5-0.8,0.8
		c-0.2,0.3-0.4,0.6-0.7,0.8c-0.6,0.2-0.5,1.2-1.4,1.2c-0.3,0.2-0.6,0.4-0.8,0.5C16.5,9.1,18.6,7.6,20.7,6.3z"/>
	<path class="st64" d="M15.6,11.7c-0.3,0.9-1,1.5-1.6,2.2C14.1,12.8,14.8,12.2,15.6,11.7z"/>
	<path class="st65" d="M26.7,5.5c0.5-0.3,1.1-0.5,1.6-0.8c0.6-0.3,1.3-0.3,1.9-0.5l0,0c1.3-0.5,2.6-0.8,3.9-0.9
		c2.5-0.2,4.9-0.4,7.3,0.6c0.7,0.3,1.5,0.1,2.2,0.4c0.5,0.2,1.1,0.3,1.4,1c0.8,0.9,1.4-0.4,2.1-0.3c0.4,0.1,0.7,0.2,1.1,0.3
		c0,0.1,0,0.2,0,0.3C47.7,5.9,47.9,6.9,47,7c-2.1-0.7-4.3-1.5-6.4-2.2c-3.1-1-6.1-0.6-9.1-0.1c-1.2,0.2-2.4,0.5-3.4,1.1
		c-0.4,0.2-0.8,0.4-1.3,0.1C26.6,5.8,26.6,5.6,26.7,5.5z"/>
	<path class="st66" d="M41.5,4.1c-0.2,0-0.5,0-0.7-0.1c-3.3-1.3-6.6-0.7-9.9,0c-0.3,0.1-0.5,0.1-0.8,0.1c0.3-1.1,1.4-0.1,1.9-0.8
		c0.5-0.4,1-0.5,1.6-0.3c0.9-0.1,1.9,0.1,2.8-0.2C37,2.7,37.3,2.5,36.9,2c1.6-0.1,3.1,0.1,4.6,0.8c-0.6,0.5-1.2,0.2-1.8,0.1
		c0.6,0.6,1.9,0.1,2.3,1.3C41.9,4.3,41.7,4.3,41.5,4.1z"/>
	<path class="st67" d="M41.5,4.1c0.2,0,0.4,0,0.6,0c0.5-0.3,0.2-0.7,0.3-1.1c1.1,0.2,2.2,0.5,3.1,1.4C46,5,45.7,5.2,45,5.2
		C44,4.5,42.6,4.6,41.5,4.1z"/>
	<path class="st68" d="M42.3,3.1c0.1,0.3,0.7,0.3,0.6,0.7c-0.1,0.4-0.5,0.3-0.9,0.3c-1-0.6-2.3-0.5-3.4-1.4c1-0.5,2,0.3,2.9,0.1
		C41.8,2.9,42.1,3,42.3,3.1z"/>
	<path class="st66" d="M36.9,2c-1.4,0-2.7,0-4.1,0C34.2,1.6,35.6,1.5,36.9,2z"/>
	<path class="st7" d="M47.2,6.9c0.5-0.3-0.1-1.4,1-1.3c0,0.1,0,0.1,0.1,0.2c0.2,0.3,0.4,0.6,0.6,1c0.6,1.6,2,2.9,2.4,4.6
		c0.1,0.3,0.2,0.6,0.3,1c0.2,0.8,0.4,1.5,0.3,2.3c-0.2,1.5-0.5,2.9-1,4.3c-0.6,1.5-1.3,2.9-1.9,4.3c-0.3,0.7-0.6,1.3-0.5,2
		c0,0.2-0.1,0.4-0.2,0.5c-0.5,0.5-0.7,1.2-0.8,1.9c0,0.2-0.1,0.4-0.2,0.7c0,0.3,0,0.5,0.1,0.8c0.1,0.3,0.2,0.5,0.2,0.8
		c0,0.2,0,0.3-0.2,0.5c-0.1,0.1-0.1,0.2-0.2,0.3c-0.6-0.1-0.6-0.6-0.8-1c-0.3-1.5-1.8-2.3-2.5-3.6c-0.9-1.2-1.1-2.7-1.3-4.1
		c-0.4-2.9,0.5-5.6,1.5-8.2c0.8-2.1,1.8-4.1,2.6-6.2C46.8,7.4,46.9,7,47.2,6.9z"/>
	<path class="st69" d="M51,9.5c2.3,2.8,2.7,6,1.7,9.4c-0.2,0.8-0.3,1.6-0.9,2.2c0-0.1-0.1-0.1-0.1-0.2c-0.3-1.1,0.4-2,0.6-3.1
		c0.3-1.5,0.3-3-0.1-4.5c0-0.1-0.1-0.2-0.1-0.4c-0.2-1.2-1.2-2.1-1.2-3.4C50.9,9.6,50.9,9.6,51,9.5z"/>
	<path class="st69" d="M48.6,6.8c-0.1-0.4-0.2-0.7-0.3-1.1C49.9,6.5,50.4,8,51,9.5c0,0,0,0,0,0c-0.7,0.1-0.8-0.5-1-0.9
		C49.5,8,49.2,7.3,48.6,6.8z"/>
	<path class="st70" d="M50.9,24.3c-0.1,0.2-0.2,0.4-0.2,0.5c-0.1,0.2-0.2,0.4-0.4,0.3c-0.4-0.2-0.4-0.5-0.4-0.9
		c0.2-0.6,0.4-1.3,1-1.7c0.1-0.1,0.3,0,0.4,0C51.3,23.3,50.5,23.7,50.9,24.3z"/>
	<path class="st69" d="M51.2,22.7c-0.1,0-0.2,0-0.3,0c-0.1-0.1-0.2-0.3-0.2-0.5c0-0.1,0.1-0.2,0.1-0.3c0.2-0.3,0.3-0.9,0.8-0.8
		c0,0,0,0,0,0C51.8,21.7,51.5,22.2,51.2,22.7z"/>
	<path class="st71" d="M52.3,24.1c0.9-0.5,1.8-1,2.7-1.5c0.4-0.2,0.8-0.5,1.2-0.1c0,0.5-0.5,0.6-0.7,1c-0.2,0.3-0.5,0.5-0.8,0.7
		c-0.9,1.2-2.4,1.7-3.3,2.9C51,27.1,51,26.7,51,26.4c0.1-0.5,0.3-1,0.6-1.4C51.8,24.7,52.1,24.4,52.3,24.1z"/>
	<path class="st72" d="M51.5,25c0.3,0.5-0.2,0.8-0.3,1.2c-0.2,0.2-0.1,0.6-0.4,0.8c-0.5,0.1-0.5,1.2-1.3,0.8
		c-0.3-0.6,0.1-1.1,0.4-1.6c0.3-0.4,0.6-0.8,1-1.1C51.1,24.9,51.3,24.9,51.5,25z"/>
	<path class="st73" d="M50.9,25.1c-0.3,0.4-0.5,0.7-0.8,1.1c-0.2,0-0.3-0.2-0.4-0.3c0-0.4,0.3-0.6,0.6-0.8c0.1-0.1,0.2-0.2,0.3-0.2
		C50.8,25,50.8,25,50.9,25.1z"/>
	<path class="st74" d="M12.3,20.8c0.2-0.7,0.4-1.4,0.6-2.2c0.3-0.4,0.3-0.9,0.5-1.4c0.6-1.7,1-3.5,2.4-4.9c0.7-0.5,0.8-1.5,1.6-1.9
		c0.2,0.1,0.3,0.4,0.4,0.6c-0.1,0.9-0.6,1.5-1,2.3c-0.5,0.8-0.9,1.7-1.3,2.5c-0.8,1.4-1,3.1-1.9,4.5c-0.3,0.5-0.2,1-0.2,1.6
		c0,0.4,0,0.9-0.1,1.3c-0.2,0.6-0.1,1.3-0.2,1.9c0,0.8,0.1,1.7-0.1,2.5c-0.1,0.2-0.2,0.4-0.4,0.5c-1,0-0.6-0.8-0.6-1.3
		c0.2-1.1,0.2-2.2,0-3.3C12,22.7,12.3,21.8,12.3,20.8z"/>
	<path class="st75" d="M12.4,27c0,0.4-0.4,0.9,0.2,1.1c0.3,0.3,0.4,0.7,0.5,1.1c0.2,0.8,0,1.6,0.4,2.4c0.1,0.7,0.5,1.2,0.7,1.8
		c0,0.1,0,0.3-0.1,0.4c-0.4,1.2,0.3,2.3,0.8,3.3c0.3,0.7,0.8,1.4,1,2.2c0.1,0.5,0.3,1-0.5,1c-0.6-0.6-0.7-1.5-1.2-2.1
		C14,38,14,37.7,13.7,37.5l0,0c-0.1-0.3-0.6-0.6-0.3-1.1c-0.3-1.2-0.4-2.4-0.8-3.5c-1.2-3.9-1.4-7.9-0.5-11.9c0-0.1,0.1-0.1,0.2-0.2
		c0,0.9,0,1.8,0,2.7C12.3,24.7,12.4,25.9,12.4,27z"/>
	<path class="st76" d="M17.5,10.6c-0.6,0.6-0.7,1.6-1.7,1.9c0.2-0.4,0.4-0.9,0.6-1.3c0.7-0.2,0.4-1.4,1.3-1.4
		C18,10.2,17.9,10.4,17.5,10.6z"/>
	<path class="st77" d="M13.4,17.3c0,0.5,0.1,1.1-0.5,1.4C13,18.2,13.1,17.7,13.4,17.3z"/>
	<path class="st78" d="M13.4,36.5c0.1,0.4,0.2,0.7,0.3,1.1c-0.5-0.2-0.5-0.6-0.6-1.1C13.3,36.5,13.4,36.5,13.4,36.5z"/>
	<path class="st79" d="M15.3,40.2c0.7-0.1,0.4-0.5,0.2-0.9c-0.7-1.6-1.7-3-2-4.7c-0.1-0.4-0.2-0.8,0.4-0.9c0.7,0.3,0.9,1,1.2,1.6
		c0.2,0.6,0.4,1.2,0.8,1.7c0.2,0.1,0.2,0.6,0.5,0.2c1,1.2,2.2,2.4,2.8,3.9c0.1,0.7,0.6,1,1.1,1.5c3.2,2.8,7,4.4,11,5.5
		c1.8,0.5,3.6,0.6,5.5,0.8c0.5,0,1,0,1.4,0.3c-0.2,0.9-1,0.6-1.5,0.6c-3.8,0.3-7.5-0.5-11-1.7c-0.5-0.2-1-0.5-1.6-0.8
		c-0.4-0.1-0.7-0.4-1.1-0.6c-0.2-0.1-0.3-0.1-0.1,0c0,0,0,0.1,0,0.1c0.9,0.5,1.9,1,2.9,1.4c0.3,0.2,0.8,0.2,0.9,0.7
		c0,0.1-0.1,0.3-0.1,0.3c-1.9-1-4.2-1.4-5.7-3.2c-0.1-0.1-0.1-0.2-0.2-0.3c-0.4-0.7-1-1.3-1.8-1.6c-0.5-0.3-0.9-0.8-1.3-1.2
		c-0.3-0.5-0.7-0.9-1.3-1c-0.4-0.1-0.5-0.4-0.7-0.7l0,0C15.5,40.8,15.2,40.6,15.3,40.2z"/>
	<path class="st79" d="M42.3,49.7c-3.3,1.6-6.7,1.8-10.3,0.8c0.1-0.1,0.1-0.1,0.2-0.2c0.4-0.2,0.9-0.2,1.3-0.2c1.5,0,2.9,0,4.4,0
		c0.8,0,1.5-0.1,2.2-0.5c0.3-0.2,0.7-0.3,1-0.3C41.6,49.3,42,49.3,42.3,49.7z"/>
	<path class="st80" d="M42.3,49.7c-0.4,0-0.8,0.1-1.1-0.2c0.6-1.1,1.7-0.4,2.5-0.8c0.5-0.1,1-0.3,1.5-0.5c0.7-0.2,1.3-0.7,2-1
		c0.5-0.2,0.9-0.6,1.5-0.2c-0.9,1-2.3,1.2-3.2,2.2C44.5,49.3,43.4,49.5,42.3,49.7z"/>
	<path class="st81" d="M26.6,49.1c0-0.1,0-0.2,0-0.3c0.3-0.2,0.6-0.2,0.9-0.1c1.4,0.4,2.9,0.7,4.3,1c0.1,0.1,0.2,0.2,0.3,0.3
		c0,0.2-0.1,0.3-0.3,0.3c-0.6,0-1.2,0.1-1.7-0.1C28.9,50.2,27.7,49.8,26.6,49.1z"/>
	<path class="st78" d="M21,45.6c0,0.1,0,0.2,0,0.3c-0.2,0-0.3,0-0.5,0c-0.5-0.6-1.5-0.7-1.6-1.6c0.1-0.1,0.2-0.1,0.3-0.1
		C19.9,44.4,20.5,45,21,45.6z"/>
	<path class="st79" d="M30.2,50.2c0.6,0,1.3,0,1.9,0c0.1,0,0.1,0.1,0.1,0.2c0,0.1,0,0.1-0.1,0.1c0,0,0,0,0,0
		C31.4,50.4,30.7,50.7,30.2,50.2z"/>
	<path class="st78" d="M15.3,40.2c0.1,0.3,0.2,0.5,0.3,0.8c-0.9-0.7-1.1-1.8-1.6-2.7c0-0.2,0.1-0.2,0.3-0.3
		C15,38.6,15,39.5,15.3,40.2z"/>
	<path class="st78" d="M15.6,41c0.3,0.2,0.5,0.4,0.8,0.5c0.5,0.3,0.9,0.6,1.2,1c0.1,0.3,0.7,0.4,0.4,0.9
		C16.9,42.9,16.1,42.2,15.6,41z"/>
	<path class="st82" d="M18,43.5c-0.2-0.3-0.4-0.6-0.5-0.8c0.1-0.1,0.2-0.1,0.3,0c0.5,0.4,0.9,0.7,1.4,1.1c0.1,0.2,0.2,0.4,0,0.5
		c-0.1,0-0.2,0-0.3,0C18.6,44,18.3,43.7,18,43.5z"/>
	<path class="st31" d="M14.3,38.1c-0.1,0.1-0.2,0.2-0.3,0.3c-0.3-0.2-0.3-0.5-0.3-0.8C14.1,37.5,14.2,37.7,14.3,38.1z"/>
	<path class="st83" d="M57.1,33.2c0-0.2,0.1-0.4,0.3-0.5c0.3,0.4,0.5,0.6,0.7,0c0.2-0.4,0.2-1.1,1-0.7c0,0.8-0.3,1.6-0.7,2.3
		c0,0.4-0.2,0.8-0.5,1.1c-1,1.9-1.9,3.8-3.3,5.4c-0.2,0.3-0.4,0.6-0.8,0.7c-0.2-0.5-0.5-0.3-0.7,0c-0.4,0.5-0.9,1-1.4,1.5
		c-0.4,0.4-0.9,0.8-1.5,0.4c0-0.8,0.6-1.2,1.1-1.6c1.9-1.7,3.3-3.8,4.5-6C56.4,35,56.1,33.8,57.1,33.2z"/>
	<path class="st74" d="M50.4,43.5c1.1-0.2,1.7-1,2.3-1.7c0.4-0.5,0.8-0.8,1.4-1.1C54,41,54,41.3,53.9,41.6c-0.6,0.4-1.2,1-1.6,1.6
		c-0.3,0.4-0.6,0.7-0.8,1.1c-0.1,0.1-0.2,0.2-0.3,0.3c-0.4,0.8-1.2,1.1-1.9,1.6c-0.2,0.2-0.4,0.5-0.6,0.7c-1.3,0-2.2,1.3-3.5,1.4
		c-0.1-0.7,0.5-0.8,0.9-1c0.7-0.5,1.6-0.8,2.2-1.4c-0.8,0.6-1.7,1.1-2.7,1.5c-0.5,0.2-1,0.5-1.5,0.1c0.2-1,1.4-0.8,1.8-1.5
		c1.1-0.4,1.9-1.1,2.8-1.8C49.3,43.8,49.7,43.2,50.4,43.5z"/>
	<path class="st84" d="M49.4,46.2c0.4-0.8,1.3-1.1,1.9-1.6c0,0.2,0,0.4,0,0.5C50.7,45.7,50.2,46.1,49.4,46.2z"/>
	<path class="st83" d="M51.5,44.3c0-0.5,0.4-0.8,0.8-1.1C52.3,43.7,51.9,44,51.5,44.3z"/>
	<path class="st85" d="M59.6,33c-0.1,0-0.2,0-0.3,0c-0.3-0.9,0.3-1.4,0.9-1.9c0.7-0.4,1.2-1,1.7-1.6c0.3-0.2,0.5-0.6,0.9-0.5
		c0.1,0,0.2,0,0.3,0c-0.6,1.2-1.6,2.1-2.6,2.9C60,32.1,59.8,32.5,59.6,33z"/>
	<path class="st86" d="M62.8,28.9c-0.3,0.2-0.5,0.4-0.8,0.6c0,0-0.1-0.1-0.1-0.1c0-0.1,0-0.2,0-0.3c0,0,0.1-0.1,0.1-0.1
		c0.3-0.2,0.5-0.4,0.8-0.5C62.8,28.5,62.8,28.7,62.8,28.9z"/>
	<path class="st86" d="M60.4,31.1c-0.4,0.6-1.1,1-1.1,1.9c-0.4,0.4,0,1.2-0.8,1.4c0.2-0.8,0.4-1.6,0.5-2.4c0.1-0.4,0.4-0.7,0.7-0.9
		c0.2-0.1,0.3-0.1,0.5,0C60.3,31,60.4,31.1,60.4,31.1z"/>
	<path class="st87" d="M51.8,30c-0.8,0-1.6,0-2.4,0.1c0.2-0.3,0.5-0.6,0.7-0.8c0.5,0.6,1.4,0,1.9,0.5C52,29.8,51.9,29.9,51.8,30z"/>
	<path class="st88" d="M51.8,30c0.1-0.1,0.2-0.2,0.2-0.3c0.5,0,0.9,0.1,1.3,0.4c0,0,0,0.1,0,0.1C52.9,30.1,52.3,30,51.8,30z"/>
	<path class="st89" d="M61.2,23.3c0.1,0.1,0.2,0.2,0.3,0.3c-0.7,0.4-1.5,0.2-2.2,0.2c0-0.1,0-0.1,0-0.2
		C59.9,23.2,60.6,23.3,61.2,23.3z"/>
	<path class="st90" d="M55.3,34.3c-1.7-0.9-3.5-0.4-5.2-0.1c-0.4,0.1-0.7,0.4-0.9,0.7c-0.4,0.7-0.9,1.5-1.8,1.4
		c-0.9-0.1-0.5-1.2-1-1.7c0.4-0.6,0.7-1.2,1.1-1.9c1,0.5,0,1.3,0.3,2c0.5-0.1,0.7-0.6,1-0.9c0.2-0.2,0.4-0.4,0.6-0.5
		c0.2-0.1,0.4-0.1,0.7-0.1c1.8,0.1,3.6-0.3,5.3,0.2C55.8,33.7,55.9,34.1,55.3,34.3z"/>
	<path class="st91" d="M46.9,32.3c-0.1-0.9-0.4-1.8-1.1-2.5c-2.1-2.1-3.2-4.6-2.9-7.7c0.4,1.4,0.6,2.8,1.4,4
		c0.6,1.3,1.7,2.3,2.4,3.5c0.2,0.4,0.4,0.7,0.6,1.1C47.5,31.4,47.6,32,46.9,32.3z"/>
	<path class="st92" d="M56.1,32.4c0,0.1,0,0.2,0,0.3c0,0.1-0.1,0.1-0.1,0.2c-0.4,0.4-0.9,0.3-1.4,0.3c-1.8,0.1-3.6-0.1-5.3,0.1
		c-0.8,0.1-1-0.4-1.1-1c0-0.1-0.1-0.3-0.2-0.4c0.2-0.3,0.6-0.4,0.8-0.2c1.6,1.5,3.6,0.5,5.4,0.8C54.8,32.5,55.4,32.4,56.1,32.4z"/>
	<path class="st93" d="M49.1,34c-0.1,0.2-0.2,0.4-0.4,0.5c-0.4,0.3-0.6,1-1.1,0.7c-0.6-0.3-0.1-0.9,0-1.3c0.1-0.4,0.4-0.8,0-1.2
		c0.2-0.2,0.3-0.4,0.5-0.6c0.4,0.3,0.3,0.7,0.3,1.1c0.1,0.4,0,0.8-0.1,1.2C48.4,34,48.6,33.8,49.1,34z"/>
	<path class="st94" d="M49.5,27.8c0.7-0.1,0.6-1,1.3-1c0.1,0.2,0.1,0.4,0,0.5c-0.2,0.7-0.7,1.2-1.2,1.6c-0.7,0.6-0.3-0.3-0.4-0.4
		C49.2,28.2,49.1,27.9,49.5,27.8z"/>
	<path class="st95" d="M49.1,34c-0.3,0.1-0.6,0.2-1.1,0.4c0-0.8,0-1.6,0-2.3c0-0.1,0-0.1,0-0.2c0.1,0,0.2,0,0.2,0
		c0.2,0.7,0.1,1.5,1.1,1.6C49.3,33.7,49.2,33.9,49.1,34z"/>
	<path class="st96" d="M49.5,27.8c-0.1,0.2-0.3,0.4-0.4,0.6c-0.1-0.1-0.2-0.2-0.3-0.3c-0.3-0.4,0.1-0.8,0.1-1.2
		c0.1-0.2,0.1-0.3,0.2-0.5c0.2-0.3,0.4-0.5,0.7-0.5c0.1,0.1,0.2,0.2,0.3,0.3C49.9,26.8,49.7,27.3,49.5,27.8z"/>
	<path class="st97" d="M47.5,30.5c0-0.2,0-0.3,0-0.5c-0.1-0.5,0.2-0.7,0.6-0.7c0.4,0.1,0.4,0.4,0.2,0.7c0,0.4,0,0.7-0.4,0.9
		C47.8,30.9,47.6,30.6,47.5,30.5z"/>
	<path class="st98" d="M48.3,30c0-0.2-0.1-0.5-0.3-0.6c-0.1-0.1-0.2-0.3-0.2-0.4c0-0.2,0-0.5,0-0.7c0-0.1,0.1-0.2,0.2-0.3
		c0.2-0.1,0.3-0.1,0.5-0.1c0.2,0.1,0.2,0.2,0.3,0.4C48.5,28.9,48.7,29.5,48.3,30z"/>
	<path class="st99" d="M48.7,28.4c-0.1-0.1-0.2-0.2-0.2-0.3c-0.4-0.7-0.2-1.2,0.4-1.7c0.4,0,0.2,0.4,0.4,0.6
		c-0.2,0.4-0.3,0.7-0.5,1.1C48.8,28.2,48.8,28.3,48.7,28.4z"/>
	<path class="st100" d="M50.7,27.3c0-0.2,0-0.4,0-0.5c0.2-0.2,0.3-0.4,0.5-0.6c0.1,0.3-0.2,0.7,0.3,0.8C51.3,27.3,51,27.3,50.7,27.3
		z"/>
	<path class="st101" d="M54.8,24.1c0.1-0.5,0.4-0.6,0.8-0.7c0,0.1,0,0.3,0,0.4C55.4,24.3,55.1,24.3,54.8,24.1z"/>
	<path class="st102" d="M59.9,31.1c-0.3,0.3-0.5,0.5-0.8,0.8c-0.5,0.2-0.5,0.7-0.7,1c-0.2,0.4-0.1,1.1-0.7,0.9
		c-0.5-0.1-0.2-0.7-0.3-1.1c0.3,0,0.5-0.3,0.6-0.6c1.7-1.5,3.3-3,4.5-4.8c0.1,0,0.2,0,0.3,0c-0.1,0.6-0.8,1-0.8,1.6c0,0,0,0,0,0
		C61.5,29.8,60.8,30.6,59.9,31.1z"/>
	<path class="st103" d="M50.4,43.5c-0.9,0.7-1.8,1.4-2.8,2c-0.5,0.4-0.9,0.7-1.6,0.7c-0.2,0.2-0.5,0.2-0.7,0.1
		c-0.3-0.7,0.4-0.8,0.7-1c1.3-0.8,2.6-1.6,3.6-2.7c2.6-1.9,4.2-4.5,5.7-7.2c0.4-0.6,0.4-1.3,0.2-2c0.1-0.2,0.3-0.4,0.4-0.6
		c0,0,0,0,0,0c0.4,0.2,0.6,0.6,1.1,0.6c-0.9,3.9-3.3,6.8-6.1,9.5C50.8,42.9,50.6,43.2,50.4,43.5z"/>
	<path class="st104" d="M16.7,13.3c0.4-0.7,0.7-1.4,1.1-2.1c0.3-0.9,1.2-1.4,1.8-2.1c0.8-0.9,1.8-1.4,2.6-2.3
		c-0.4,0.1-0.7,0.6-1.2,0.4c0,0-0.1-0.1-0.1-0.1c0-0.2,0-0.3,0-0.5c1.8-0.7,3.2-2.3,5.1-2.7c0.1,0,0.3,0,0.4,0
		c0.5,0.1,1.3-0.7,1.5,0C28.1,4.6,27,4.7,26.5,5c-0.2,0.2-0.4,0.3-0.6,0.5c-0.9,1.2-2.4,1.6-3.5,2.6c-0.9,0.9-1.9,1.8-2.8,2.7
		c-0.7,0.6-1.2,1.3-1.7,2.1c-0.3,0.5-0.5,1.1-1.2,1C16.5,13.7,16.5,13.5,16.7,13.3z"/>
	<path class="st85" d="M19.4,10.6c1.8-2.2,3.9-3.9,6.5-5.1c0.3,0,0.5,0,0.8,0c0,0.1,0,0.2,0,0.3c-0.4,0.8-1.3,0.9-1.9,1.3
		c-0.7,0.5-1.4,0.9-2,1.5c-0.8,0.5-1.5,1.3-2.2,1.9c-0.3,0.3-0.6,0.8-1.2,0.6C19.2,10.9,19.2,10.8,19.4,10.6z"/>
	<path class="st105" d="M33.7,3.1c-0.5,0.3-1.1,0.3-1.6,0.3c-0.3,0-0.6,0.1-0.7-0.3c-0.1-0.3,0.1-0.4,0.4-0.5
		c0.6-0.2,1.2-0.4,1.8-0.3C34.3,2.4,33.9,2.8,33.7,3.1z"/>
	<path class="st85" d="M30.2,4.2c-0.6,0.3-1.2,0.5-1.9,0.5C28.8,4.1,29.5,4.1,30.2,4.2z"/>
	<path class="st106" d="M19.7,9.3c-0.5,0.7-1.2,1.4-1.9,1.9c-0.2-0.1-0.3-0.3-0.3-0.5c0.1-0.3,0.2-0.5,0.3-0.8
		c0.2-0.3,0.4-0.5,0.5-0.8c0.3-0.1,0.6-0.4,0.9-0.5C19.7,8.6,19.9,8.8,19.7,9.3z"/>
	<path class="st104" d="M19.1,8.2c0.5-0.4,0.9-1,1.6-1.1c0,0,0,0,0,0c0,1-0.7,1.3-1.6,1.4C19,8.4,19,8.4,19,8.3
		C19.1,8.2,19.1,8.2,19.1,8.2z"/>
	<path class="st107" d="M19.1,8.2c0,0.1,0,0.2,0,0.3c0.1,0.1,0.1,0.1,0.1,0.2c0,0.1-0.1,0.1-0.1,0.1c-0.3,0.1-0.5,0.2-0.8,0.3
		C18.5,8.6,18.8,8.4,19.1,8.2z"/>
	<path class="st108" d="M22.6,8.4c1-1.4,2.6-1.9,4.1-2.7c1.3-0.1,2.4-1,3.7-1.2c3.6-0.7,7-1.2,10.6,0c2.1,0.7,4.2,1.3,6.3,2.3
		c-0.1,0.3,0,0.6-0.3,0.8c-6.3-3.7-12.8-4.3-19.5-1.4c-1.1,0.4-2.1,0.9-3.1,1.4c-0.4,0.2-0.7,0.6-1.1,0.8l0,0
		C23,8.6,22.8,8.6,22.6,8.4z"/>
	<path class="st109" d="M50.4,11.5c0.9,2.6,0.5,5-1.1,7.2c0,0.1,0,0.1,0,0.2c-0.2,0.4-0.6,0.7-0.8,1.2c-0.5,0.8-0.8,1.7-1.7,2.3
		c-0.1,0-0.3,0-0.4,0c-0.3-0.2-0.4-0.6-0.4-0.9c0.3-2.1,0.8-4.1,1.9-5.9c0.4-0.6,0.7-1.2,1.1-1.8c-0.4-0.7,0.4-1,0.5-1.6
		C49.7,11.7,49.8,11.3,50.4,11.5z"/>
	<path class="st110" d="M46.9,22.2c0.4-0.8,0.9-1.6,1.3-2.3c0.4-0.4,0.8-0.7,1.1-1.2c0,0,0,0,0,0c0.2-0.1,0.4-0.3,0.9-0.6
		c-0.7,1.6-1.3,3.1-2,4.5c-0.5,1.3-1.1,2.5-1.4,3.9c0,0.2,0,0.6-0.4,0.4c-0.1,0-0.1-0.3-0.2-0.5c-0.8-1-0.6-2-0.2-3.1
		C46.3,22.9,46.5,22.5,46.9,22.2z"/>
	<path class="st111" d="M45.8,27c-2.1-2.8-2.8-5.8-1.6-9.1c0.5,0.4,0.2,1.1,0.7,1.5c0.2,0.3,0.3,0.6,0.3,0.9c0,0.6,0.4,1.1,0.6,1.6
		C46,23.6,45.9,25.3,45.8,27z"/>
	<path class="st112" d="M49.1,26.5c-0.4,0.5-0.5,1-0.5,1.6c-0.2,0-0.4,0-0.5,0c-0.4-0.5-0.1-1,0.1-1.5c0.2-0.5,0.5-0.9,0.4-1.5
		c0-0.3,0.1-0.6,0.3-0.8c1.8-3.1,3.1-6.2,3-9.8c0-0.8-0.2-1.6-0.5-2.3c-0.1-0.3-0.3-0.5-0.2-0.8c1.1,0,0.8,1.1,1.3,1.6l0,0
		c1,3.3-0.1,6.2-1.4,9.2l0,0c-0.3,0.7-0.7,1.4-0.9,2.1c-0.1,0.3-0.1,0.6-0.2,0.9C49.5,25.6,49.4,26.1,49.1,26.5z"/>
	<path class="st113" d="M45.8,27c-0.1-1.8-0.3-3.6-0.4-5.4c0-0.1,0-0.3,0-0.4c0.1-0.8,0.3-1.6,0.6-2.4c0.4-1,0.6-2.1,0.5-3.2
		c0-0.2,0.2-0.3,0.3-0.4c0.3-0.2,0.6,0.8,0.8,0c0.1,0.1,0.2,0.2,0.3,0.3c-0.3,2-1.4,3.8-1.6,5.9c-0.3,0.5,0.1,1,0,1.4
		c0.3,0.1-0.8,0.4,0,0.5c-0.3,1.1-0.3,2.2-0.1,3.3C46.1,26.7,46,26.9,45.8,27z"/>
	<path class="st114" d="M51.2,12.2c1.2,1.6,1,3.4,0.7,5.1c-0.4,2.6-1.5,5-2.9,7.2c-0.2-0.2-0.3-0.5-0.3-0.8c0.4-1.5,1.2-2.8,1.7-4.2
		c0.5-1.6,1.2-3.2,1-5C51.6,13.8,51.3,13,51.2,12.2z"/>
	<path class="st115" d="M47.7,15.1c-0.2,0.3-0.3,1.1-0.8,0.2c-0.4-0.5-0.3-1.1-0.5-1.6c-0.1-0.3-0.1-0.7,0-1
		c0.1-0.3,0.3-0.6,0.3-0.9c0-0.1,0.1-0.2,0.1-0.3c0.2-0.4,0.4-0.9,0.5-1.4c0.2-0.6,0.2-1.3,0.5-1.9C48.2,8.4,48,8.7,48,9
		c0.2,1,0.2,2,0,3C48.1,13.1,47.7,14.1,47.7,15.1z"/>
	<path class="st116" d="M50.7,19.8c-0.3,1.5-1.2,2.6-1.6,4c-0.2,0.4-0.4,0.9-0.4,1.4c-0.1,0.2-0.2,0.3-0.4,0.2
		c-0.6-0.8,0-1.4,0.3-2.1c0.6-1.5,1.3-2.9,1.9-4.4C51,19.1,50.8,19.4,50.7,19.8z"/>
	<path class="st117" d="M49.9,12.2c-0.3,0.5-0.6,1-0.8,1.4c-1-0.3-0.3-1.1-0.4-1.7c0.2-0.8,0-1.5,0.1-2.3C48.7,9.4,48.5,9,49,9
		c0.4,0.7,0.9,1.3,0.9,2.1C50.1,11.5,49.5,11.8,49.9,12.2z"/>
	<path class="st66" d="M52.3,13c-0.6-0.4-0.5-1.4-1.3-1.6c-0.5-1.7-1.9-2.9-2.4-4.6c0.8,0.2,1.2,0.9,1.5,1.6
		c0.2,0.4,0.3,0.9,0.8,1.2C51.2,10.8,52.3,11.7,52.3,13z"/>
	<path class="st118" d="M50.7,19.8c0-0.3,0.1-0.6-0.3-0.8c0.5-1.4,0.8-2.9,1.1-4.3C52.1,16.5,51.4,18.1,50.7,19.8z"/>
	<path class="st119" d="M44.2,16.8c0.4-1.6,0.9-3.2,1.8-4.6c0.2,0.2,0.3,0.5,0.2,0.8c-0.2,1.2-0.8,2.3-1.2,3.5
		C45,16.9,44.8,17.4,44.2,16.8z"/>
	<path class="st120" d="M44.2,16.8c0.4,0.2,0.5-0.1,0.6-0.4c0.4-1.1,0.9-2.3,1.3-3.4c0.5,0,0.4,0.3,0.3,0.6c-0.5,1.8-1,3.6-1.7,5.4
		c-0.6-0.3-0.3-0.7-0.3-1.1C44.4,17.5,44.3,17.2,44.2,16.8z"/>
	<path class="st121" d="M46.7,29.7c-1.2-0.9-2.1-2-2.4-3.5C45,27.4,46.5,28.1,46.7,29.7z"/>
	<path class="st122" d="M48.3,25.4c0.1-0.1,0.2-0.2,0.3-0.3c0.1-0.1,0.2-0.1,0.3,0c0.2,1.1-0.9,1.9-0.8,3c0,0,0,0,0,0
		c-0.3,0.4-0.5,1-1.1,0.3c0.1-0.2,0.2-0.4,0.3-0.5c0.4-0.7,0.4-1.5,0.8-2.1C48.1,25.6,48.2,25.5,48.3,25.4z"/>
	<path class="st123" d="M47.7,8.3c-0.1,0.7,0.2,1.4-0.3,2.1c-0.3,0.4-0.3,0.9-0.5,1.4l0,0c-0.2,0.2-0.3,0.2-0.5,0
		C46.5,10.4,47.1,9.3,47.7,8.3z"/>
	<path class="st124" d="M49,9c-0.7,0.9,0.1,2-0.5,2.9c0-1.2,0-2.3,0-3.5C48.9,8.5,48.9,8.8,49,9z"/>
	<path class="st125" d="M48,25.7c0,0.8,0,1.6-0.8,2.1C47.2,27,47.2,26.3,48,25.7z"/>
	<path class="st123" d="M48,12c0-1,0-2,0-3C48.3,10,48.3,11,48,12z"/>
	<path class="st126" d="M46.9,28.4c0.5,0.3,0.7-0.1,1.1-0.3c0,0.3,0,0.5,0,0.8c-0.2,0.3-0.5,0.3-0.8,0.3
		C46.9,29,46.9,28.7,46.9,28.4z"/>
	<path class="st127" d="M47.2,29.2c0.2-0.3,0.5-0.3,0.8-0.3c0,0.2,0,0.4,0,0.5c-0.2,0.2-0.4,0.4-0.5,0.6
		C47.2,29.8,47.2,29.5,47.2,29.2z"/>
	<path class="st1" d="M44.4,17.9c0.1,0.4,0,0.8,0.3,1.1c0.2,0.2,0.2,0.3,0,0.5c-1-0.3-0.4-1-0.5-1.6C44.3,17.9,44.4,17.9,44.4,17.9z
		"/>
	<path class="st128" d="M46.3,13.6c0-0.2,0-0.5-0.2-0.6c0-0.3,0-0.5,0-0.8c0.1,0,0.2,0,0.3,0c0.1,0.1,0.2,0.1,0.3,0.3
		c0,0.4,0,0.7,0,1.1c0,0-0.1,0.1-0.1,0.1C46.4,13.6,46.4,13.6,46.3,13.6z"/>
	<path class="st129" d="M46.6,12.5c-0.1-0.1-0.2-0.2-0.3-0.3c0-0.2,0-0.4,0-0.5c0.2,0,0.3,0,0.5,0C46.9,12,46.9,12.3,46.6,12.5z"/>
	<path class="st130" d="M49.9,12.2c-0.6-0.4,0-0.7,0-1.1c0.2,0,0.4,0.1,0.5,0.3C50,11.5,49.9,11.8,49.9,12.2z"/>
	<path class="st66" d="M51,22.2c0.4-1.2,0.7-2.4,1.2-3.7c0.7-1.8,0.4-3.7,0.2-5.5c1,2,0.5,3.9,0,5.9c-0.2,0.7-0.4,1.4-0.6,2.2
		C51.5,21.5,51.2,21.8,51,22.2z"/>
	<path class="st131" d="M49.6,25.1c0.1-0.3,0.2-0.5,0.3-0.8c0.1-0.1,0.2-0.1,0.3,0c0,0.3-0.1,0.6,0.2,0.8c-0.2,0.3-0.3,0.6-0.5,0.8
		c-0.2,0.2-0.4,0.4-0.6,0.6C49,26,49.5,25.6,49.6,25.1z"/>
	<path class="st66" d="M50.1,24.3l-0.1,0c0,0-0.1,0-0.1,0c0.2-0.8,0.5-1.5,1.1-2.2c0,0.2,0,0.4,0,0.5C50.7,23.3,50.4,23.8,50.1,24.3
		z"/>
	<path class="st132" d="M16.4,37.3c-0.2,0.9-0.4-0.2-0.5,0c-0.3-0.6-0.6-1.2-0.8-1.9c-0.4-0.5-0.7-1.1-1.1-1.6c0-0.1,0-0.2,0-0.3
		c-0.2-1-0.5-2-0.8-3c0-0.6-0.2-1.2-0.3-1.9c0-0.3,0.1-0.6,0.1-0.9c0-0.8,0-1.7,0-2.5c0-0.5,0-1.1,0-1.6c0.4-0.5,0.2-1.2,0.2-1.7
		c0.1-0.5-0.1-1.1,0.1-1.6c0.6-1.5,1.3-3,1.9-4.6c0.1-0.1,0.2-0.1,0.3,0c0.2,0.3,0.2,0.6,0.1,1c-0.2,0.5-0.4,0.9-0.3,1.5
		c0,0.1-0.1,0.3-0.1,0.4c-1.6,3.5-1.6,7.1-1.1,10.8c0.1,0.9,0.3,1.8,0.5,2.8c0.2,1.3,0.8,2.5,1.4,3.6C16.4,36.1,16.8,36.6,16.4,37.3
		z"/>
	<path class="st133" d="M12.4,27c-0.3-1.2-0.5-2.3,0-3.5C12.8,24.7,12.8,25.9,12.4,27z"/>
	<path class="st76" d="M15.6,15.7c-0.1,0-0.2,0-0.3,0c0.4-0.8,0.7-1.7,1.3-2.4c0,0.2,0,0.4,0,0.6C16.9,14.8,16.5,15.4,15.6,15.7z"/>
	<path class="st77" d="M13.2,25.1c0,0.9,0,1.8,0,2.7c-0.1,0.1-0.2,0.1-0.3,0c0-0.9,0-1.8,0-2.7C13,25,13.1,25,13.2,25.1z"/>
	<path class="st134" d="M12.9,27.8c0.1,0,0.2,0,0.3,0c0,0.3,0,0.5,0,0.8c-0.2,0.1-0.1,0.4-0.3,0.6c-0.4-0.3-0.2-0.7-0.3-1.1
		C12.7,28,12.8,27.9,12.9,27.8z"/>
	<path class="st134" d="M13.2,25.1c-0.1,0-0.2,0-0.3,0c0.1-0.6-0.2-1.3,0.3-1.9c0.1,0.1,0.1,0.1,0.1,0.2c0,0.1,0,0.1-0.1,0.1
		C13.2,24.1,13.2,24.6,13.2,25.1z"/>
	<path class="st134" d="M13.4,20.3c0,0.5,0,1.1,0,1.6c-0.1,0.1-0.2,0.1-0.3,0C13.3,21.4,13,20.8,13.4,20.3z"/>
	<path class="st77" d="M13.2,21.9c0.1,0,0.2,0,0.3,0c-0.1,0.5,0.2,1.1-0.3,1.6c0-0.1,0-0.2,0-0.3C13.2,22.8,13.2,22.4,13.2,21.9z"/>
	<path class="st135" d="M12.9,29.2c0-0.2,0.1-0.4,0.3-0.6c0.1,0.6,0.2,1.2,0.3,1.9c0.1,0.5,0.4,1-0.3,1.3
		C12.9,31,12.9,30.1,12.9,29.2z"/>
	<path class="st136" d="M13.2,31.9c0.4-0.4,0.2-0.9,0.3-1.3c0.4,0.9,0.7,1.9,0.5,3C13.6,33,13.4,32.4,13.2,31.9z"/>
	<path class="st137" d="M45.3,46.1c0.3,0,0.6,0,0.8,0c-0.3,1-1.5,0.6-1.9,1.3c-0.1,0.3-0.3,0.4-0.6,0.4c-1.6,0.2-3,0.7-4.4,1.4
		c-0.4,0.1-0.7,0.1-1-0.2c-4.3,0-8.3-0.8-12.2-2.7c-2.2-1-4.3-2.2-6-3.8c-0.4-0.4-1.3-0.6-0.9-1.6c1-0.1,1.3,1,2.1,1.3
		c0.1,0.1,0.2,0.1,0.3,0.2c0.5,0.5,1,0.9,1.6,0.9c1.6,0.7,3.2,1.6,4.7,2.5c4.3,1.8,8.7,2.7,13.3,1.1c0.6-0.2,1.1-0.4,1.7-0.5
		c0.8,0,1.5-0.3,2.3-0.5C45.2,46.1,45.2,46.1,45.3,46.1z"/>
	<path class="st138" d="M38.3,49.1c0.4,0,0.7,0,1.1,0c0.9-0.6,2-0.8,3-1c0.5,0.3,1.4-0.2,1.6,0.7c-0.8,0.6-1.9,0-2.7,0.6
		c-0.3,0.1-0.5,0.2-0.8,0.3c-1.7,1.1-3.5,0.3-5.3,0.6c-0.4,0.1-0.9,0-1.3,0c-0.1,0-0.3,0-0.4,0c-0.4-0.2-1,0-1.4-0.4
		c-1.9,0.1-3.6-0.8-5.4-1.1c-0.3-0.2-0.5-0.3-0.8-0.5c-0.2-0.2-0.4-0.3-0.3-0.6c2.3,0.5,4.5,1.3,6.8,1.5
		C34.3,49.4,36.3,49.7,38.3,49.1z"/>
	<path class="st139" d="M21.3,42.6c-1-0.1-1.3-1.2-2.2-1.6c-0.9-1.3-1.8-2.5-2.7-3.8c-0.3-1.2-1.1-2.2-1.5-3.4
		c-0.2-0.5-0.4-1.1-0.4-1.7c-0.1-0.2-0.1-0.4,0-0.6c0.1-0.1,0.3-0.1,0.4,0c1.3,3.8,3.2,7.1,6,10C21.1,41.9,21.4,42.2,21.3,42.6z"/>
	<path class="st140" d="M25.6,47.7c0.1,0.2,0.2,0.4,0.3,0.6c-1.1-0.5-2.4-0.7-3.2-1.6c0.6-0.5,1,0.5,1.6,0.3
		C24.7,47.2,25.1,47.5,25.6,47.7z"/>
	<path class="st141" d="M19.1,44.3c0-0.2,0-0.4,0-0.5c1,0.3,1.6,0.9,1.9,1.9C20.3,45.3,19.7,44.8,19.1,44.3z"/>
	<path class="st142" d="M24.2,47c-0.6,0.5-1-0.4-1.6-0.3c-0.2-0.2-0.7-0.4,0-0.5C23.2,46.1,23.7,46.6,24.2,47z"/>
	<path class="st143" d="M17.8,42.6c-0.1,0-0.2,0-0.3,0c-0.5-0.3-0.8-0.6-1.1-1.1C17.1,41.6,17.7,41.9,17.8,42.6z"/>
	<path class="st144" d="M15.1,35.4c0.5,0.5,0.8,1.1,0.8,1.9C15.3,36.7,15,36.2,15.1,35.4z"/>
	<path class="st145" d="M33.4,50.2c2.3-0.2,4.7,0.2,7-0.5c-0.6,0.7-1.4,0.8-2.2,0.8c-1.6,0-3.2,0-4.9,0
		C33.4,50.4,33.3,50.3,33.4,50.2C33.4,50.2,33.4,50.2,33.4,50.2z"/>
	<path class="st81" d="M33.4,50.2c0,0.1,0,0.2,0,0.3c-0.4,0-0.9,0-1.3,0c0-0.1,0-0.2,0-0.2c0,0,0,0,0,0C32.5,50,33,50,33.4,50.2
		L33.4,50.2z"/>
	<path class="st146" d="M43.9,48.8c-0.4-0.6-1.2,0-1.6-0.5c0.3-0.6,0.8-0.6,1.4-0.5c0.2-0.1,0.3-0.2,0.5-0.3c1.8,0,3-1.6,5-2.1
		c-1.1,1.6-2.9,1.8-3.9,2.9C44.9,48.7,44.5,48.9,43.9,48.8z"/>
	<path class="st145" d="M33.4,50.2c-0.4,0-0.9,0-1.3,0c0-0.1,0-0.2,0-0.3C32.5,50,33,49.7,33.4,50.2z"/>
	<path class="st86" d="M62,29.5c-0.3,0.8-0.8,1.3-1.6,1.6c0,0,0-0.1,0-0.1C60.6,30.2,61.2,29.7,62,29.5L62,29.5z"/>
	<path class="st48" d="M62,29.4c-0.6,0.5-1.2,1-1.6,1.6c-0.2,0-0.3,0-0.5,0c0.6-0.8,1.3-1.6,2.2-2.2C62,29.1,62,29.3,62,29.4z"/>
	<path class="st1" d="M37.2,32.4c-1.4,3.3-4,5.1-7.4,5.7c-0.2,0.1-0.4,0-0.4-0.2c0.1-0.4,0.5-0.5,0.8-0.6c2.1-0.8,3.6-2.3,4.9-4
		c0.2-0.2,0.2-0.5,0.3-0.8c1-1.3,0.7-2.9-0.9-3.8c-0.8-0.4-1.7-0.7-2.6-1.1c-2.3-1-2.7-2.5-1.1-4.5c1.4-1.7,3.1-3.1,5.3-3.8
		c0.7-0.2,1.6-0.4,2.1,0.3c0.5,0.8,0.3,1.6-0.1,2.4c-0.1,0.3-0.4,0.5-0.8,0.4c-0.4-0.2-0.3-0.5-0.2-0.8c0.2-0.6,0.8-1.3,0.1-1.8
		c-0.7-0.5-1.4,0.1-2.1,0.5c-1.4,1-2.7,2.1-3.7,3.5c-0.8,1.2-0.6,2.1,0.7,2.8c0.7,0.4,1.5,0.7,2.3,1c1.9,0.8,2.8,2.1,2.8,4.2
		C37.4,32,37.3,32.2,37.2,32.4z"/>
	<path class="st7" d="M23.4,28.9c-0.4,0.7-1.1,0.8-1.7,0.5C21.1,29.2,21,28.6,21,28c0.1-2.4,0.8-4.7,1.5-7c0.8-2.5,1.6-5,2.4-7.5
		c0.1-0.4,0.5-0.8,0.1-1.1c-0.4-0.2-0.7,0.2-1,0.5c-0.4,0.3-0.8,0.6-1.2,0.8c-0.3,0.1-0.4,0-0.3-0.3c0.7-0.8,1.5-1.2,2.3-1.8
		c0.3-0.2,0.7-0.7,1.2-0.3c0.5,0.3,0.3,0.8,0.1,1.2c-0.8,2.9-1.6,5.9-2.4,8.8c-0.6,2.1-1.2,4.2-1.5,6.4C21.9,29.2,22,29.3,23.4,28.9
		L23.4,28.9z"/>
	<path class="st147" d="M18,14.4c-0.6,1.5-1.3,2.9-1.9,4.4c-1.4,3.8-1.5,7.6-0.8,11.6c0.8,4,2.6,7.4,5.3,10.4
		c2.5,2.7,5.8,4.1,9.2,5.4c2.6,1,5.4,1.2,8.2,1.1c0,0.6-0.6,0.6-1,0.6c-0.8,0.1-1.7,0.1-2.5-0.1c-2.2-0.1-4.3-0.6-6.3-1.4
		c-1-1-2.3-1.4-3.5-1.9c-2.3-1.1-4-2.6-5.5-4.6c-3.8-4.9-5.5-10.4-4.9-16.6c0.3-2.8,1.3-5.3,2.6-7.8C17.1,14.9,17.3,14.3,18,14.4z"
		/>
	<path class="st9" d="M34.2,47.5c1.2-0.2,2.5,0.3,3.8-0.3c2.5-0.5,4.8-1.2,7.1-2.3c1-0.5,2.1-1,2.9-1.7c0.7-0.6,1.6-1.1,2.2-1.8
		c2-2.1,3.8-4.4,5.1-7.1c0.3-0.2,0.2-0.5,0.2-0.8c-0.1-0.1-0.1-0.1-0.1-0.2c0-0.1,0-0.1,0-0.1c0.1-0.1,0.2,0,0.3,0
		c0.3,0.8,0.4,1.6-0.1,2.4c-1.3,2.1-2.6,4.2-4.4,6c-0.4,0.4-0.9,0.8-1.4,1c-1.1,0.9-2.2,1.8-3.5,2.5c-2.8,1.7-5.9,2.5-9.1,2.9
		C36.3,48.2,35.1,48.5,34.2,47.5z"/>
	<path class="st8" d="M23.5,28.9c0.3-0.9,1.2-1.4,1.8-2.1c3.8-4.5,6.9-9.4,10.3-14.1c0.3-0.4,0.6-0.8,0.9-1.2
		c0.2-0.3,0.5-0.6,0.9-0.2c0.2,0.2,0.5,0.6,0.2,0.9c-0.1,0.1-0.1,0.1-0.2,0.2c-4,4.1-6.8,9.2-10.7,13.5
		C25.7,27.1,24.9,28.4,23.5,28.9C23.4,28.9,23.5,28.9,23.5,28.9z"/>
	<path class="st148" d="M18,14.4c-0.5,0.2-0.6,0.7-0.8,1.2c-1.3,2.4-2.1,5-2.7,7.7c-0.1-0.1-0.2-0.2-0.3-0.4c-0.1-0.6,0-1.2,0-1.8
		c0.2-1.1,0.6-2,1-3c0-0.1,0-0.2,0-0.2c0.1-0.3,0.3-0.6,0.4-0.9c0-0.1,0.1-0.2,0.1-0.3c0.2-0.7,0.6-1.4,1-2.1c0.5-1,1.2-1.8,1.6-2.7
		c0.1-0.3,0.4-0.7,0.9-0.6c1.2-0.7,1.8-2.2,3.2-2.7c0.2,0,0.4,0,0.6,0c-0.9,1.2-2.3,2-3.2,3.2C19.3,12.6,18.7,13.5,18,14.4z"/>
	<path class="st149" d="M22.3,13.3c0.1,0.1,0.2,0.2,0.3,0.3c-1.4,1.4-3,2.8-3,5c0,0.3-0.1,0.6-0.5,0.5c-0.3,0-0.4-0.4-0.4-0.6
		c-0.1-0.7,0.1-1.3,0.5-1.9C20,15.3,21.1,14.2,22.3,13.3z"/>
	<path class="st150" d="M29.4,37.8c0.1,0.1,0.2,0.2,0.4,0.3c-1.2,0.4-2.5,0.5-3.8,0.4c-0.5,0-1.2,0-1.4-0.7
		c-0.2-0.6,0.3-1.1,0.7-1.5c0.2-0.2,0.5-0.3,0.8-0.5c0.2-0.1,0.4,0,0.5,0.2c-0.3,1.5-0.1,1.7,1.5,1.7C28.5,37.7,29,37.4,29.4,37.8z"
		/>
	<path class="st151" d="M26.4,36.2c-0.1-0.1-0.2-0.2-0.4-0.3c0.6-0.5,1.4-0.8,2.1-1.1c0.3-0.1,0.4,0,0.4,0.3
		C28.1,35.8,27.4,36.3,26.4,36.2z"/>
	<path class="st152" d="M28.6,35.1c-0.1-0.1-0.2-0.2-0.4-0.3c0.7-0.5,1.5-0.5,2.3-0.7c0.1,0.1,0.1,0.2,0.1,0.4
		C30,35,29.3,35.3,28.6,35.1z"/>
	<path class="st152" d="M32.6,33.2c0.5-0.4,1.1-0.3,1.6-0.5c0.2,0.1,0.4,0.2,0.3,0.4c-0.4,0.5-0.9,0.6-1.6,0.5
		C32.8,33.6,32.7,33.4,32.6,33.2z"/>
	<path class="st153" d="M37.2,32.4c0-0.2,0-0.3,0-0.5c0.5-0.1,1.1-0.2,1.6-0.3c0.1,0.1,0.1,0.1,0.1,0.2c0,0.1,0,0.1-0.1,0.1
		C38.3,32,37.7,32.2,37.2,32.4z"/>
	<path class="st154" d="M30.4,34.2C30.4,34.2,30.4,34.1,30.4,34.2c0.2-0.6,0.7-0.4,1.1-0.6c0.2,0.1,0.3,0.2,0.3,0.5
		C31.4,34.4,31,34.9,30.4,34.2z"/>
	<path class="st155" d="M31.9,33.8c-0.1-0.1-0.2-0.2-0.3-0.3c0.4-0.1,0.7-0.2,1.1-0.3c0.1,0.1,0.2,0.1,0.2,0.2
		C32.7,34,32.4,34.1,31.9,33.8z"/>
	<path class="st156" d="M41.4,30.9c0.2-0.5,0.5-0.5,1-0.5C42.2,31.1,41.7,30.8,41.4,30.9z"/>
	<path class="st157" d="M43,30.2c0.5-0.5,0.8-0.8,1.5-0.5C44,30.1,43.7,30.3,43,30.2z"/>
	<path class="st158" d="M39.6,31.3C39.9,31,40.3,31,41,31c-0.4,0.5-0.8,0.5-1.1,0.6C39.8,31.5,39.6,31.5,39.6,31.3z"/>
	<path class="st159" d="M34.5,33c-0.1-0.1-0.2-0.2-0.3-0.2c0.4-0.1,0.7-0.2,1.1-0.3c0.1,0.2,0.4,0.5,0,0.8
		C35.1,33.2,34.7,33.2,34.5,33z"/>
	<path class="st148" d="M23.2,8.5c0.2-0.4,0.5-0.8,1.1-0.8C24,8.1,23.7,8.4,23.2,8.5z"/>
	<path class="st160" d="M39.6,31.3c0.1,0.1,0.2,0.2,0.3,0.2c-0.4,0.1-0.7,0.2-1.1,0.3c0-0.1,0-0.2,0-0.3
		C39,31.3,39.3,31.3,39.6,31.3z"/>
	<path class="st161" d="M55.8,33.2c-0.1,0-0.2,0-0.3,0c-1.4,0.3-2.8,0-4.2,0.1c-0.5,0-1-0.1-1.4,0.1c-0.2,0-0.3,0-0.5,0
		c-1.4,0.2-1-0.9-1.1-1.6c0.3,1.1,0.9,1.3,2,1.1c1.4-0.2,2.9-0.1,4.4-0.1c0.5,0,1,0,1.4-0.3C56.1,32.9,56,33.1,55.8,33.2z"/>
	<path class="st162" d="M49.9,33.5c1.9-0.6,3.8-0.1,5.7-0.3c0,0.1,0,0.2,0,0.3C53.6,33.5,51.8,33.5,49.9,33.5z"/>
	<path class="st163" d="M49.6,25.1c-0.1,0.5-0.2,0.9-0.2,1.4c0,0.2,0,0.3,0,0.5c-0.1-0.2-0.2-0.4-0.2-0.5
		C49.1,26,49.2,25.5,49.6,25.1z"/>
	<path class="st9" d="M34.2,47.5c2.1,0.6,4.1,0.3,6.1-0.2c3.3-0.9,6.5-2.1,9-4.5c0.1-0.1,0.3-0.1,0.5-0.2c-1.1,1.7-3.1,2.3-4.6,3.5
		c0,0,0,0,0,0c-0.7,0.3-1.5,0.5-2.2,0.8c-1.4,0.1-2.7,0.9-4.1,1.1c-3.9,0.6-7.6-0.2-11.2-1.7c-0.1,0-0.2-0.2-0.3-0.3
		c0.3-0.1,0.5-0.2,0.8,0.1C30.2,47.1,32.2,47.2,34.2,47.5z"/>
	<path class="st164" d="M19.1,8.7c0-0.1,0-0.2,0-0.3c0.7-0.3,1.2-0.7,1.6-1.3c0.8-0.2,1.3-0.9,2.3-1c-0.9,1.4-2.2,2.2-3.4,3.2
		C19.6,8.9,19.5,8.7,19.1,8.7z"/>
	<path class="st165" d="M19.4,11.1c-1.1,1-1.5,2.4-2.4,3.5c-0.5,0.7-0.8,1.4-1.1,2.2l0,0c-0.1,0.1-0.2,0.1-0.3,0c0-0.3,0-0.7,0.1-1
		c0.4-0.6,0.8-1.2,1.1-1.9c1.1-0.9,1.3-2.5,2.7-3.2C19.4,10.8,19.4,11,19.4,11.1z"/>
	<path class="st166" d="M46.4,23.3c-0.2,0-0.3,0.3-0.5,0c0,0,0.1-0.2,0.2-0.3c0.2-0.3,0.1-0.7,0.5-0.8c0.1,0,0.2,0,0.2,0
		C46.8,22.6,46.7,23,46.4,23.3z"/>
	<path class="st167" d="M46.6,22.2c-0.2,0.3-0.4,0.5-0.5,0.8c0-0.6-0.1-1.1,0.2-1.6C46.4,21.6,46.3,22,46.6,22.2z"/>
	<path class="st168" d="M49.3,18.7c-0.1,0.6-0.5,1-1.1,1.2C48.5,19.3,48.8,18.9,49.3,18.7z"/>
	<path class="st109" d="M44.7,19.5c0-0.2,0-0.3,0-0.5c0-1.9,0.8-3.7,1.6-5.4c0,0,0.1,0,0.1,0c0.4,0.6,0.4,1.2,0.4,1.9
		c0.3,0.9,0.2,1.7-0.1,2.6c-0.4,1.1-0.7,2.3-1.1,3.4c-0.4-0.3-0.6-0.6-0.5-1.1C44.9,20,44.8,19.7,44.7,19.5z"/>
	<path class="st169" d="M45,20.3c0.2,0.4,0.4,0.7,0.5,1.1c-0.1,0.1-0.1,0.2-0.2,0.2C45.1,21.2,44.5,20.9,45,20.3z"/>
	<path class="st52" d="M48.8,25.1c-0.1,0-0.2,0-0.3,0c0-0.5,0.1-1,0.5-1.3c0,0.3,0,0.5,0,0.8C49,24.8,48.9,25,48.8,25.1z"/>
	<path class="st170" d="M46.8,15.4c-0.1-0.6-0.3-1.3-0.4-1.9c0.1,0,0.2,0,0.2,0C47,14.1,47,14.7,46.8,15.4
		C46.8,15.4,46.8,15.4,46.8,15.4z"/>
	<path class="st129" d="M46.9,11.7c0.1-0.5-0.1-1.1,0.5-1.4C47.5,10.9,47.3,11.3,46.9,11.7z"/>
	<path class="st40" d="M15.3,18.1c-0.3,1-0.5,2-0.8,3c-0.3,0.6-0.1,1.2-0.2,1.8c0,0.1-0.1,0.3-0.1,0.4c0,1.8-0.1,3.5,0.1,5.3
		c0.2,0.4,0.2,0.9,0.3,1.3c0.2,0.6,0.3,1.2-0.1,1.7c0,0.2,0,0.4,0,0.6c-1.2-4.5-1.4-9,0.3-13.4C14.9,18.5,15.1,18.3,15.3,18.1z"/>
	<path class="st40" d="M15.6,16.8c0.1,0,0.2,0,0.3,0c0,0.5-0.1,0.9-0.6,1.1C14.9,17.4,15.4,17.1,15.6,16.8z"/>
	<path class="st171" d="M14.3,30c0-0.4,0-0.9,0-1.3c-0.2-1.9-0.2-3.8,0-5.7l0,0c0.1-0.1,0.2-0.1,0.3,0c0,0.1,0,0.2,0,0.3
		c-0.1,2.9-0.1,5.7,0.7,8.5c1.7,5.6,4.6,10.3,10.2,12.9c1,0.4,2,0.8,2.8,1.5c-0.3,0-0.5,0-0.8-0.1c-1.5-0.8-3.1-1.6-4.6-2.4
		c-0.7-0.2-1.1-0.7-1.6-1.1c0,0,0,0,0,0c-2.4-2.5-4.3-5.3-5.8-8.4c-0.4-0.8-0.7-1.7-0.7-2.7C14.4,31.1,15,30.4,14.3,30z"/>
	<path class="st76" d="M43.7,47.8c-0.4,0.3-1,0.1-1.4,0.5c-1,0.3-2,0.5-3,0.8C40.6,48.1,42,47.6,43.7,47.8z"/>
	<path class="st103" d="M43.1,47c0.6-0.6,1.4-0.7,2.2-0.8C44.7,46.7,43.9,46.9,43.1,47z"/>
	<path class="st139" d="M21.3,42.6c0.7,0.1,1.1,0.7,1.6,1.1C22.1,43.8,21.6,43.2,21.3,42.6z"/>
	<path class="st172" d="M14.3,30c0.9,0.3,0.4,1.1,0.5,1.6c-0.1,0-0.2,0-0.3,0C14.5,31,14.5,30.5,14.3,30z"/>
	<path class="st40" d="M15.9,16.8c0-0.9,0.4-1.6,1.1-2.2C16.8,15.4,16.4,16.2,15.9,16.8z"/>
	<path class="st172" d="M14.5,23c-0.1,0-0.2,0-0.3,0c0.1-0.6-0.2-1.3,0.3-1.9C14.5,21.7,14.5,22.4,14.5,23z"/>
	<path class="st172" d="M14.3,23c0,1.9,0,3.8,0,5.7C13.8,26.8,13.8,24.9,14.3,23z"/>
</g>
</svg>
